<?xml version="1.0" standalone="no"?>
<?xml-stylesheet href="light.css" type="text/css"?>
<!DOCTYPE svg PUBLIC "-//W3C//DTD SVG 1.1//EN" "http://www.w3.org/Graphics/SVG/1.1/DTD/svg11.dtd">
<svg xmlns="http://www.w3.org/2000/svg" class="railroad-diagram" width="708" height="132" viewBox="0 0 708 132"><g transform="translate(.5 .5)"><path d="M 20 45 v 20 m 0 -10 h 20.5"></path><g><path d="M40 55h0"></path><path d="M668 55h0"></path><path d="M40 55h20"></path><g><path d="M60 55h0"></path><path d="M648 55h0"></path><g class="terminal"><path d="M60 55h0"></path><path d="M122 55h0"></path><rect x="60" y="44" width="62" height="22" rx="0" ry="0"></rect><text x="91" y="59">AUTH</text></g><path d="M122 55h10"></path><g><path d="M132 55h0"></path><path d="M584 55h0"></path><path d="M132 55h20"></path><g><path d="M152 55h0"></path><path d="M564 55h0"></path><g class="terminal"><path d="M152 55h0"></path><path d="M222 55h0"></path><rect x="152" y="44" width="70" height="22" rx="0" ry="0"></rect><text x="187" y="59">LOGIN</text></g><path d="M222 55h10"></path><g><path d="M232 55h0"></path><path d="M564 55h0"></path><path d="M232 55h20"></path><g><path d="M252 55h0"></path><path d="M544 55h0"></path><g><path d="M252 55h0"></path><path d="M386 55h0"></path><path d="M252 55a10 10 0 0 0 10 -10v-15a10 10 0 0 1 10 -10"></path><g><path d="M272 20h94"></path></g><path d="M366 20a10 10 0 0 1 10 10v15a10 10 0 0 0 10 10"></path><path d="M252 55h20"></path><g class="non-terminal"><path d="M272 55h0"></path><path d="M366 55h0"></path><rect x="272" y="44" width="94" height="22" rx="8" ry="8"></rect><text x="319" y="59">provider</text></g><path d="M366 55h20"></path></g><g><path d="M386 55h0"></path><path d="M544 55h0"></path><path d="M386 55a10 10 0 0 0 10 -10v-15a10 10 0 0 1 10 -10"></path><g><path d="M406 20h118"></path></g><path d="M524 20a10 10 0 0 1 10 10v15a10 10 0 0 0 10 10"></path><path d="M386 55h20"></path><g class="terminal"><path d="M406 55h0"></path><path d="M524 55h0"></path><rect x="406" y="44" width="118" height="22" rx="0" ry="0"></rect><text x="465" y="59">INTERACTIVE</text></g><path d="M524 55h20"></path></g></g><path d="M544 55h20"></path></g></g><path d="M564 55h20"></path><path d="M132 55a10 10 0 0 1 10 10v26a10 10 0 0 0 10 10"></path><g><path d="M152 101h167"></path><path d="M397 101h167"></path><g class="terminal"><path d="M319 101h0"></path><path d="M397 101h0"></path><rect x="319" y="90" width="78" height="22" rx="0" ry="0"></rect><text x="358" y="105">REVOKE</text></g></g><path d="M564 101a10 10 0 0 0 10 -10v-26a10 10 0 0 1 10 -10"></path></g><path d="M584 55h10"></path><g class="terminal"><path d="M594 55h0"></path><path d="M648 55h0"></path><rect x="594" y="44" width="54" height="22" rx="0" ry="0"></rect><text x="621" y="59">';'</text></g></g><path d="M648 55h20"></path></g><path d="M 668 55 h 20 m 0 -10 v 20"></path></g></svg>