<?xml version="1.0" standalone="no"?>
<?xml-stylesheet href="light.css" type="text/css"?>
<!DOCTYPE svg PUBLIC "-//W3C//DTD SVG 1.1//EN" "http://www.w3.org/Graphics/SVG/1.1/DTD/svg11.dtd">
<svg xmlns="http://www.w3.org/2000/svg" class="railroad-diagram" width="1108" height="86" viewBox="0 0 1108 86"><g transform="translate(.5 .5)"><path d="M 20 45 v 20 m 0 -10 h 20.5"></path><g><path d="M40 55h0"></path><path d="M1068 55h0"></path><path d="M40 55h20"></path><g><path d="M60 55h0"></path><path d="M1048 55h0"></path><g class="terminal"><path d="M60 55h0"></path><path d="M138 55h0"></path><rect x="60" y="44" width="78" height="22" rx="0" ry="0"></rect><text x="99" y="59">DELETE</text></g><path d="M138 55h10"></path><g><path d="M148 55h0"></path><path d="M290 55h0"></path><path d="M148 55a10 10 0 0 0 10 -10v-15a10 10 0 0 1 10 -10"></path><g><path d="M168 20h102"></path></g><path d="M270 20a10 10 0 0 1 10 10v15a10 10 0 0 0 10 10"></path><path d="M148 55h20"></path><g class="non-terminal"><path d="M168 55h0"></path><path d="M270 55h0"></path><rect x="168" y="44" width="102" height="22" rx="8" ry="8"></rect><text x="219" y="59">queryHint</text></g><path d="M270 55h20"></path></g><path d="M290 55h10"></path><g class="terminal"><path d="M300 55h0"></path><path d="M362 55h0"></path><rect x="300" y="44" width="62" height="22" rx="0" ry="0"></rect><text x="331" y="59">FROM</text></g><path d="M362 55h10"></path><path d="M372 55h10"></path><g class="non-terminal"><path d="M382 55h0"></path><path d="M564 55h0"></path><rect x="382" y="44" width="182" height="22" rx="8" ry="8"></rect><text x="473" y="59">multipartIdentifier</text></g><path d="M564 55h10"></path><path d="M574 55h10"></path><g class="terminal"><path d="M584 55h0"></path><path d="M654 55h0"></path><rect x="584" y="44" width="70" height="22" rx="0" ry="0"></rect><text x="619" y="59">WHERE</text></g><path d="M654 55h10"></path><path d="M664 55h10"></path><g class="non-terminal"><path d="M674 55h0"></path><path d="M784 55h0"></path><rect x="674" y="44" width="110" height="22" rx="8" ry="8"></rect><text x="729" y="59">expression</text></g><path d="M784 55h10"></path><g><path d="M794 55h0"></path><path d="M984 55h0"></path><path d="M794 55a10 10 0 0 0 10 -10v-15a10 10 0 0 1 10 -10"></path><g><path d="M814 20h150"></path></g><path d="M964 20a10 10 0 0 1 10 10v15a10 10 0 0 0 10 10"></path><path d="M794 55h20"></path><g><path d="M814 55h0"></path><path d="M964 55h0"></path><path d="M814 55h20"></path><g><path d="M834 55h0"></path><path d="M944 55h0"></path><g class="non-terminal"><path d="M834 55h0"></path><path d="M944 55h0"></path><rect x="834" y="44" width="110" height="22" rx="8" ry="8"></rect><text x="889" y="59">expression</text></g></g><path d="M944 55h20"></path></g><path d="M964 55h20"></path></g><path d="M984 55h10"></path><g class="terminal"><path d="M994 55h0"></path><path d="M1048 55h0"></path><rect x="994" y="44" width="54" height="22" rx="0" ry="0"></rect><text x="1021" y="59">';'</text></g></g><path d="M1048 55h20"></path></g><path d="M 1068 55 h 20 m 0 -10 v 20"></path></g></svg>