<?xml version="1.0" standalone="no"?>
<?xml-stylesheet href="light.css" type="text/css"?>
<!DOCTYPE svg PUBLIC "-//W3C//DTD SVG 1.1//EN" "http://www.w3.org/Graphics/SVG/1.1/DTD/svg11.dtd">
<svg xmlns="http://www.w3.org/2000/svg" class="railroad-diagram" width="624" height="86" viewBox="0 0 624 86"><g transform="translate(.5 .5)"><path d="M 20 45 v 20 m 0 -10 h 20.5"></path><g><path d="M40 55h0"></path><path d="M584 55h0"></path><path d="M40 55h20"></path><g><path d="M60 55h0"></path><path d="M564 55h0"></path><g class="terminal"><path d="M60 55h0"></path><path d="M154 55h0"></path><rect x="60" y="44" width="94" height="22" rx="0" ry="0"></rect><text x="107" y="59">DESCRIBE</text></g><path d="M154 55h10"></path><g><path d="M164 55h0"></path><path d="M298 55h0"></path><path d="M164 55a10 10 0 0 0 10 -10v-15a10 10 0 0 1 10 -10"></path><g><path d="M184 20h94"></path></g><path d="M278 20a10 10 0 0 1 10 10v15a10 10 0 0 0 10 10"></path><path d="M164 55h20"></path><g class="terminal"><path d="M184 55h0"></path><path d="M278 55h0"></path><rect x="184" y="44" width="94" height="22" rx="0" ry="0"></rect><text x="231" y="59">EXTENDED</text></g><path d="M278 55h20"></path></g><path d="M298 55h10"></path><g class="non-terminal"><path d="M308 55h0"></path><path d="M490 55h0"></path><rect x="308" y="44" width="182" height="22" rx="8" ry="8"></rect><text x="399" y="59">multipartIdentifier</text></g><path d="M490 55h10"></path><path d="M500 55h10"></path><g class="terminal"><path d="M510 55h0"></path><path d="M564 55h0"></path><rect x="510" y="44" width="54" height="22" rx="0" ry="0"></rect><text x="537" y="59">';'</text></g></g><path d="M564 55h20"></path></g><path d="M 584 55 h 20 m 0 -10 v 20"></path></g></svg>