<?xml version="1.0" standalone="no"?>
<?xml-stylesheet href="light.css" type="text/css"?>
<!DOCTYPE svg PUBLIC "-//W3C//DTD SVG 1.1//EN" "http://www.w3.org/Graphics/SVG/1.1/DTD/svg11.dtd">
<svg xmlns="http://www.w3.org/2000/svg" class="railroad-diagram" width="1352" height="110" viewBox="0 0 1352 110"><g transform="translate(.5 .5)"><path d="M 20 45 v 20 m 0 -10 h 20.5"></path><g><path d="M40 55h0"></path><path d="M1312 55h0"></path><path d="M40 55h20"></path><g><path d="M60 55h0"></path><path d="M1292 55h0"></path><g class="terminal"><path d="M60 55h0"></path><path d="M122 55h0"></path><rect x="60" y="44" width="62" height="22" rx="0" ry="0"></rect><text x="91" y="59">EXEC</text></g><path d="M122 55h10"></path><g><path d="M132 55h0"></path><path d="M274 55h0"></path><path d="M132 55a10 10 0 0 0 10 -10v-15a10 10 0 0 1 10 -10"></path><g><path d="M152 20h102"></path></g><path d="M254 20a10 10 0 0 1 10 10v15a10 10 0 0 0 10 10"></path><path d="M132 55h20"></path><g class="non-terminal"><path d="M152 55h0"></path><path d="M254 55h0"></path><rect x="152" y="44" width="102" height="22" rx="8" ry="8"></rect><text x="203" y="59">queryHint</text></g><path d="M254 55h20"></path></g><path d="M274 55h10"></path><g class="non-terminal"><path d="M284 55h0"></path><path d="M466 55h0"></path><rect x="284" y="44" width="182" height="22" rx="8" ry="8"></rect><text x="375" y="59">multipartIdentifier</text></g><path d="M466 55h10"></path><path d="M476 55h10"></path><g class="terminal"><path d="M486 55h0"></path><path d="M540 55h0"></path><rect x="486" y="44" width="54" height="22" rx="0" ry="0"></rect><text x="513" y="59">'.'</text></g><path d="M540 55h10"></path><path d="M550 55h10"></path><g class="non-terminal"><path d="M560 55h0"></path><path d="M734 55h0"></path><rect x="560" y="44" width="174" height="22" rx="8" ry="8"></rect><text x="647" y="59">providerMethodName</text></g><path d="M734 55h10"></path><path d="M744 55h10"></path><g class="non-terminal"><path d="M754 55h0"></path><path d="M936 55h0"></path><rect x="754" y="44" width="182" height="22" rx="8" ry="8"></rect><text x="845" y="59">parameterExpression</text></g><path d="M936 55h10"></path><g><path d="M946 55h0"></path><path d="M1228 55h0"></path><path d="M946 55a10 10 0 0 0 10 -10v-15a10 10 0 0 1 10 -10"></path><g><path d="M966 20h242"></path></g><path d="M1208 20a10 10 0 0 1 10 10v15a10 10 0 0 0 10 10"></path><path d="M946 55h20"></path><g><path d="M966 55h0"></path><path d="M1208 55h0"></path><path d="M966 55h10"></path><g><path d="M976 55h0"></path><path d="M1198 55h0"></path><path d="M976 55h20"></path><g><path d="M996 55h0"></path><path d="M1178 55h0"></path><g class="non-terminal"><path d="M996 55h0"></path><path d="M1178 55h0"></path><rect x="996" y="44" width="182" height="22" rx="8" ry="8"></rect><text x="1087" y="59">parameterExpression</text></g></g><path d="M1178 55h20"></path></g><path d="M1198 55h10"></path><path d="M976 55a10 10 0 0 0 -10 10v15a10 10 0 0 0 10 10"></path><g><path d="M976 90h222"></path></g><path d="M1198 90a10 10 0 0 0 10 -10v-15a10 10 0 0 0 -10 -10"></path></g><path d="M1208 55h20"></path></g><path d="M1228 55h10"></path><g class="terminal"><path d="M1238 55h0"></path><path d="M1292 55h0"></path><rect x="1238" y="44" width="54" height="22" rx="0" ry="0"></rect><text x="1265" y="59">';'</text></g></g><path d="M1292 55h20"></path></g><path d="M 1312 55 h 20 m 0 -10 v 20"></path></g></svg>