<svg id="Layer_1" data-name="Layer 1" xmlns="http://www.w3.org/2000/svg" width="165.15mm" height="21.92mm" viewBox="0 0 468.14 62.14">
  <g>
    <g>
      <path d="M113.42,245.52h9.36v50.4h-9.36Z" transform="translate(-113.42 -244.8)" style="fill: #0e4d81"/>
      <path d="M186.07,245.52v50.4h-7.7l-27.8-34.13v34.13h-9.28v-50.4H149l27.79,34.13V245.52Z" transform="translate(-113.42 -244.8)" style="fill: #0e4d81"/>
      <path d="M213.86,253.37V268.7H238.2v7.92H213.86v19.3H204.5v-50.4h36.8v7.85Z" transform="translate(-113.42 -244.8)" style="fill: #0e4d81"/>
      <path d="M288.24,295.92l-10.3-14.76a18,18,0,0,1-1.94.07H264.62v14.69h-9.36v-50.4H276c13.25,0,21.46,6.77,21.46,17.93,0,7.63-3.89,13.25-10.73,15.91l11.59,16.56Zm-12.67-42.48H264.62v20.09h10.95c8.2,0,12.45-3.75,12.45-10.08S283.77,253.44,275.57,253.44Z" transform="translate(-113.42 -244.8)" style="fill: #0e4d81"/>
      <path d="M345.48,284.26h-25.2l-5,11.66h-9.65l22.68-50.4h9.22l22.75,50.4h-9.79Zm-3.1-7.35-9.5-22-9.44,22Z" transform="translate(-113.42 -244.8)" style="fill: #0e4d81"/>
      <path d="M424.1,301a16.75,16.75,0,0,1-13.17,6c-6.84,0-12-2.67-19.37-10.44-14.12-1.23-24.27-11.81-24.27-25.78,0-14.91,11.52-25.92,27.15-25.92s27.14,10.94,27.14,25.92a25.23,25.23,0,0,1-18.86,24.84c2.88,3.1,5.47,4.25,8.42,4.25a11.4,11.4,0,0,0,8.64-4Zm-29.66-12.53c10.15,0,17.71-7.41,17.71-17.71S404.59,253,394.44,253s-17.72,7.41-17.72,17.71S384.28,288.43,394.44,288.43Z" transform="translate(-113.42 -244.8)" style="fill: #0e4d81"/>
      <path d="M436.41,245.52h9.36V288h26.36v7.92H436.41Z" transform="translate(-113.42 -244.8)" style="fill: #0e4d81"/>
    </g>
    <g>
      <path d="M491.72,245.9l40.07,19.45v7.93l-40.07,19.49v-9.49l29.82-13.95-29.82-13.89Z" transform="translate(-113.42 -244.8)" style="fill: #0f4d81;stroke: #0f4d81"/>
      <path d="M541,245.9l40.07,19.45v7.93L541,292.77v-9.49l29.82-13.95L541,255.44Z" transform="translate(-113.42 -244.8)" style="fill: #0f4d81;stroke: #0f4d81"/>
    </g>
  </g>
</svg>
