<?xml version="1.0" standalone="no"?>
<?xml-stylesheet href="light.css" type="text/css"?>
<!DOCTYPE svg PUBLIC "-//W3C//DTD SVG 1.1//EN" "http://www.w3.org/Graphics/SVG/1.1/DTD/svg11.dtd">
<svg xmlns="http://www.w3.org/2000/svg" class="railroad-diagram" width="1594" height="132" viewBox="0 0 1594 132"><g transform="translate(.5 .5)"><path d="M 20 45 v 20 m 0 -10 h 20.5"></path><g><path d="M40 55h0"></path><path d="M1554 55h0"></path><path d="M40 55h20"></path><g><path d="M60 55h0"></path><path d="M1534 55h0"></path><g class="terminal"><path d="M60 55h0"></path><path d="M138 55h0"></path><rect x="60" y="44" width="78" height="22" rx="0" ry="0"></rect><text x="99" y="59">INSERT</text></g><path d="M138 55h10"></path><g><path d="M148 55h0"></path><path d="M330 55h0"></path><path d="M148 55a10 10 0 0 0 10 -10v-15a10 10 0 0 1 10 -10"></path><g><path d="M168 20h142"></path></g><path d="M310 20a10 10 0 0 1 10 10v15a10 10 0 0 0 10 10"></path><path d="M148 55h20"></path><g class="non-terminal"><path d="M168 55h0"></path><path d="M310 55h0"></path><rect x="168" y="44" width="142" height="22" rx="8" ry="8"></rect><text x="239" y="59">awaitQueryHint</text></g><path d="M310 55h20"></path></g><g><path d="M330 55h0"></path><path d="M448 55h0"></path><path d="M330 55a10 10 0 0 0 10 -10v-15a10 10 0 0 1 10 -10"></path><g><path d="M350 20h78"></path></g><path d="M428 20a10 10 0 0 1 10 10v15a10 10 0 0 0 10 10"></path><path d="M330 55h20"></path><g class="terminal"><path d="M350 55h0"></path><path d="M428 55h0"></path><rect x="350" y="44" width="78" height="22" rx="0" ry="0"></rect><text x="389" y="59">IGNORE</text></g><path d="M428 55h20"></path></g><g><path d="M448 55h0"></path><path d="M550 55h0"></path><path d="M448 55a10 10 0 0 0 10 -10v-15a10 10 0 0 1 10 -10"></path><g><path d="M468 20h62"></path></g><path d="M530 20a10 10 0 0 1 10 10v15a10 10 0 0 0 10 10"></path><path d="M448 55h20"></path><g class="terminal"><path d="M468 55h0"></path><path d="M530 55h0"></path><rect x="468" y="44" width="62" height="22" rx="0" ry="0"></rect><text x="499" y="59">INTO</text></g><path d="M530 55h20"></path></g><path d="M550 55h10"></path><g class="non-terminal"><path d="M560 55h0"></path><path d="M742 55h0"></path><rect x="560" y="44" width="182" height="22" rx="8" ry="8"></rect><text x="651" y="59">multipartIdentifier</text></g><path d="M742 55h10"></path><g><path d="M752 55h0"></path><path d="M1042 55h0"></path><path d="M752 55h20"></path><g><path d="M772 55h0"></path><path d="M1022 55h0"></path><g class="terminal"><path d="M772 55h0"></path><path d="M826 55h0"></path><rect x="772" y="44" width="54" height="22" rx="0" ry="0"></rect><text x="799" y="59">'('</text></g><path d="M826 55h10"></path><path d="M836 55h10"></path><g class="non-terminal"><path d="M846 55h0"></path><path d="M948 55h0"></path><rect x="846" y="44" width="102" height="22" rx="8" ry="8"></rect><text x="897" y="59">fieldList</text></g><path d="M948 55h10"></path><path d="M958 55h10"></path><g class="terminal"><path d="M968 55h0"></path><path d="M1022 55h0"></path><rect x="968" y="44" width="54" height="22" rx="0" ry="0"></rect><text x="995" y="59">')'</text></g></g><path d="M1022 55h20"></path></g><g><path d="M1042 55h0"></path><path d="M1470 55h0"></path><path d="M1042 55h20"></path><g><path d="M1062 55h119"></path><path d="M1331 55h119"></path><g class="non-terminal"><path d="M1181 55h0"></path><path d="M1331 55h0"></path><rect x="1181" y="44" width="150" height="22" rx="8" ry="8"></rect><text x="1256" y="59">selectStatement</text></g></g><path d="M1450 55h20"></path><path d="M1042 55a10 10 0 0 1 10 10v26a10 10 0 0 0 10 10"></path><g><path d="M1062 101h0"></path><path d="M1450 101h0"></path><g><path d="M1062 101h0"></path><path d="M1450 101h0"></path><path d="M1062 101h20"></path><g><path d="M1082 101h0"></path><path d="M1430 101h0"></path><g class="terminal"><path d="M1082 101h0"></path><path d="M1160 101h0"></path><rect x="1082" y="90" width="78" height="22" rx="0" ry="0"></rect><text x="1121" y="105">VALUES</text></g><path d="M1160 101h10"></path><path d="M1170 101h10"></path><g class="terminal"><path d="M1180 101h0"></path><path d="M1234 101h0"></path><rect x="1180" y="90" width="54" height="22" rx="0" ry="0"></rect><text x="1207" y="105">'('</text></g><path d="M1234 101h10"></path><path d="M1244 101h10"></path><g class="non-terminal"><path d="M1254 101h0"></path><path d="M1356 101h0"></path><rect x="1254" y="90" width="102" height="22" rx="8" ry="8"></rect><text x="1305" y="105">fieldList</text></g><path d="M1356 101h10"></path><path d="M1366 101h10"></path><g class="terminal"><path d="M1376 101h0"></path><path d="M1430 101h0"></path><rect x="1376" y="90" width="54" height="22" rx="0" ry="0"></rect><text x="1403" y="105">')'</text></g></g><path d="M1430 101h20"></path></g></g><path d="M1450 101a10 10 0 0 0 10 -10v-26a10 10 0 0 1 10 -10"></path></g><path d="M1470 55h10"></path><g class="terminal"><path d="M1480 55h0"></path><path d="M1534 55h0"></path><rect x="1480" y="44" width="54" height="22" rx="0" ry="0"></rect><text x="1507" y="59">';'</text></g></g><path d="M1534 55h20"></path></g><path d="M 1554 55 h 20 m 0 -10 v 20"></path></g></svg>