<?xml version="1.0" standalone="no"?>
<?xml-stylesheet href="light.css" type="text/css"?>
<!DOCTYPE svg PUBLIC "-//W3C//DTD SVG 1.1//EN" "http://www.w3.org/Graphics/SVG/1.1/DTD/svg11.dtd">
<svg xmlns="http://www.w3.org/2000/svg" class="railroad-diagram" width="4172" height="346" viewBox="0 0 4172 346"><g transform="translate(.5 .5)"><path d="M 20 93 v 20 m 0 -10 h 20.5"></path><g><path d="M40 103h0"></path><path d="M4132 103h0"></path><path d="M40 103h20"></path><g><path d="M60 103h0"></path><path d="M4112 103h0"></path><g class="terminal"><path d="M60 103h0"></path><path d="M138 103h0"></path><rect x="60" y="92" width="78" height="22" rx="0" ry="0"></rect><text x="99" y="107">SELECT</text></g><path d="M138 103h10"></path><g><path d="M148 103h0"></path><path d="M322 103h0"></path><path d="M148 103a10 10 0 0 0 10 -10v-15a10 10 0 0 1 10 -10"></path><g><path d="M168 68h134"></path></g><path d="M302 68a10 10 0 0 1 10 10v15a10 10 0 0 0 10 10"></path><path d="M148 103h20"></path><g><path d="M168 103h0"></path><path d="M302 103h0"></path><path d="M168 103h20"></path><g><path d="M188 103h0"></path><path d="M282 103h0"></path><g class="terminal"><path d="M188 103h0"></path><path d="M282 103h0"></path><rect x="188" y="92" width="94" height="22" rx="0" ry="0"></rect><text x="235" y="107">DISTINCT</text></g></g><path d="M282 103h20"></path></g><path d="M302 103h20"></path></g><g><path d="M322 103h0"></path><path d="M812 103h0"></path><path d="M322 103a10 10 0 0 0 10 -10v-15a10 10 0 0 1 10 -10"></path><g><path d="M342 68h450"></path></g><path d="M792 68a10 10 0 0 1 10 10v15a10 10 0 0 0 10 10"></path><path d="M322 103h20"></path><g><path d="M342 103h0"></path><path d="M792 103h0"></path><path d="M342 103h10"></path><g><path d="M352 103h0"></path><path d="M782 103h0"></path><path d="M352 103h20"></path><g><path d="M372 103h168"></path><path d="M594 103h168"></path><g class="terminal"><path d="M540 103h0"></path><path d="M594 103h0"></path><rect x="540" y="92" width="54" height="22" rx="0" ry="0"></rect><text x="567" y="107">'*'</text></g></g><path d="M762 103h20"></path><path d="M352 103a10 10 0 0 1 10 10v74a10 10 0 0 0 10 10"></path><g><path d="M372 197h0"></path><path d="M762 197h0"></path><g class="non-terminal"><path d="M372 197h0"></path><path d="M506 197h0"></path><rect x="372" y="186" width="134" height="22" rx="8" ry="8"></rect><text x="439" y="201">fullFieldName</text></g><path d="M506 197h10"></path><g><path d="M516 197h0"></path><path d="M762 197h0"></path><path d="M516 197a10 10 0 0 0 10 -10v-39a10 10 0 0 1 10 -10"></path><g><path d="M536 138h206"></path></g><path d="M742 138a10 10 0 0 1 10 10v39a10 10 0 0 0 10 10"></path><path d="M516 197h20"></path><g><path d="M536 197h0"></path><path d="M742 197h0"></path><path d="M536 197h20"></path><g><path d="M556 197h0"></path><path d="M722 197h0"></path><g><path d="M556 197h0"></path><path d="M642 197h0"></path><path d="M556 197a10 10 0 0 0 10 -10v-15a10 10 0 0 1 10 -10"></path><g><path d="M576 162h46"></path></g><path d="M622 162a10 10 0 0 1 10 10v15a10 10 0 0 0 10 10"></path><path d="M556 197h20"></path><g class="terminal"><path d="M576 197h0"></path><path d="M622 197h0"></path><rect x="576" y="186" width="46" height="22" rx="0" ry="0"></rect><text x="599" y="201">AS</text></g><path d="M622 197h20"></path></g><path d="M642 197h10"></path><g class="non-terminal"><path d="M652 197h0"></path><path d="M722 197h0"></path><rect x="652" y="186" width="70" height="22" rx="8" ry="8"></rect><text x="687" y="201">alias</text></g></g><path d="M722 197h20"></path></g><path d="M742 197h20"></path></g></g><path d="M762 197a10 10 0 0 0 10 -10v-74a10 10 0 0 1 10 -10"></path><path d="M352 103a10 10 0 0 1 10 10v168a10 10 0 0 0 10 10"></path><g><path d="M372 291h4"></path><path d="M758 291h4"></path><g class="non-terminal"><path d="M376 291h0"></path><path d="M502 291h0"></path><rect x="376" y="280" width="126" height="22" rx="8" ry="8"></rect><text x="439" y="295">functionCall</text></g><path d="M502 291h10"></path><g><path d="M512 291h0"></path><path d="M758 291h0"></path><path d="M512 291a10 10 0 0 0 10 -10v-39a10 10 0 0 1 10 -10"></path><g><path d="M532 232h206"></path></g><path d="M738 232a10 10 0 0 1 10 10v39a10 10 0 0 0 10 10"></path><path d="M512 291h20"></path><g><path d="M532 291h0"></path><path d="M738 291h0"></path><path d="M532 291h20"></path><g><path d="M552 291h0"></path><path d="M718 291h0"></path><g><path d="M552 291h0"></path><path d="M638 291h0"></path><path d="M552 291a10 10 0 0 0 10 -10v-15a10 10 0 0 1 10 -10"></path><g><path d="M572 256h46"></path></g><path d="M618 256a10 10 0 0 1 10 10v15a10 10 0 0 0 10 10"></path><path d="M552 291h20"></path><g class="terminal"><path d="M572 291h0"></path><path d="M618 291h0"></path><rect x="572" y="280" width="46" height="22" rx="0" ry="0"></rect><text x="595" y="295">AS</text></g><path d="M618 291h20"></path></g><path d="M638 291h10"></path><g class="non-terminal"><path d="M648 291h0"></path><path d="M718 291h0"></path><rect x="648" y="280" width="70" height="22" rx="8" ry="8"></rect><text x="683" y="295">alias</text></g></g><path d="M718 291h20"></path></g><path d="M738 291h20"></path></g></g><path d="M762 291a10 10 0 0 0 10 -10v-168a10 10 0 0 1 10 -10"></path></g><path d="M782 103h10"></path><path d="M352 103a10 10 0 0 0 -10 10v203a10 10 0 0 0 10 10"></path><g><path d="M352 326h430"></path></g><path d="M782 326a10 10 0 0 0 10 -10v-203a10 10 0 0 0 -10 -10"></path></g><path d="M792 103h20"></path></g><g><path d="M812 103h0"></path><path d="M2970 103h0"></path><path d="M812 103a10 10 0 0 0 10 -10v-63a10 10 0 0 1 10 -10"></path><g><path d="M832 20h2118"></path></g><path d="M2950 20a10 10 0 0 1 10 10v63a10 10 0 0 0 10 10"></path><path d="M812 103h20"></path><g><path d="M832 103h0"></path><path d="M2950 103h0"></path><path d="M832 103h20"></path><g><path d="M852 103h0"></path><path d="M2930 103h0"></path><g class="terminal"><path d="M852 103h0"></path><path d="M914 103h0"></path><rect x="852" y="92" width="62" height="22" rx="0" ry="0"></rect><text x="883" y="107">FROM</text></g><path d="M914 103h10"></path><path d="M924 103h10"></path><g class="non-terminal"><path d="M934 103h0"></path><path d="M1108 103h0"></path><rect x="934" y="92" width="174" height="22" rx="8" ry="8"></rect><text x="1021" y="107">resourceOrSubQuery</text></g><path d="M1108 103h10"></path><g><path d="M1118 103h0"></path><path d="M1466 103h0"></path><path d="M1118 103a10 10 0 0 0 10 -10v-15a10 10 0 0 1 10 -10"></path><g><path d="M1138 68h308"></path></g><path d="M1446 68a10 10 0 0 1 10 10v15a10 10 0 0 0 10 10"></path><path d="M1118 103h20"></path><g><path d="M1138 103h0"></path><path d="M1446 103h0"></path><path d="M1138 103h10"></path><g><path d="M1148 103h0"></path><path d="M1436 103h0"></path><path d="M1148 103h20"></path><g><path d="M1168 103h0"></path><path d="M1416 103h0"></path><g class="terminal"><path d="M1168 103h0"></path><path d="M1222 103h0"></path><rect x="1168" y="92" width="54" height="22" rx="0" ry="0"></rect><text x="1195" y="107">','</text></g><path d="M1222 103h10"></path><path d="M1232 103h10"></path><g class="non-terminal"><path d="M1242 103h0"></path><path d="M1416 103h0"></path><rect x="1242" y="92" width="174" height="22" rx="8" ry="8"></rect><text x="1329" y="107">resourceOrSubQuery</text></g></g><path d="M1416 103h20"></path></g><path d="M1436 103h10"></path><path d="M1148 103a10 10 0 0 0 -10 10v15a10 10 0 0 0 10 10"></path><g><path d="M1148 138h288"></path></g><path d="M1436 138a10 10 0 0 0 10 -10v-15a10 10 0 0 0 -10 -10"></path></g><path d="M1446 103h20"></path></g><g><path d="M1466 103h0"></path><path d="M1746 103h0"></path><path d="M1466 103a10 10 0 0 0 10 -10v-15a10 10 0 0 1 10 -10"></path><g><path d="M1486 68h240"></path></g><path d="M1726 68a10 10 0 0 1 10 10v15a10 10 0 0 0 10 10"></path><path d="M1466 103h20"></path><g><path d="M1486 103h0"></path><path d="M1726 103h0"></path><path d="M1486 103h20"></path><g><path d="M1506 103h0"></path><path d="M1706 103h0"></path><g class="terminal"><path d="M1506 103h0"></path><path d="M1576 103h0"></path><rect x="1506" y="92" width="70" height="22" rx="0" ry="0"></rect><text x="1541" y="107">WHERE</text></g><path d="M1576 103h10"></path><path d="M1586 103h10"></path><g class="non-terminal"><path d="M1596 103h0"></path><path d="M1706 103h0"></path><rect x="1596" y="92" width="110" height="22" rx="8" ry="8"></rect><text x="1651" y="107">expression</text></g></g><path d="M1706 103h20"></path></g><path d="M1726 103h20"></path></g><g><path d="M1746 103h0"></path><path d="M2642 103h0"></path><path d="M1746 103a10 10 0 0 0 10 -10v-39a10 10 0 0 1 10 -10"></path><g><path d="M1766 44h856"></path></g><path d="M2622 44a10 10 0 0 1 10 10v39a10 10 0 0 0 10 10"></path><path d="M1746 103h20"></path><g><path d="M1766 103h0"></path><path d="M2622 103h0"></path><path d="M1766 103h20"></path><g><path d="M1786 103h0"></path><path d="M2602 103h0"></path><g class="terminal"><path d="M1786 103h0"></path><path d="M1856 103h0"></path><rect x="1786" y="92" width="70" height="22" rx="0" ry="0"></rect><text x="1821" y="107">GROUP</text></g><path d="M1856 103h10"></path><path d="M1866 103h10"></path><g class="terminal"><path d="M1876 103h0"></path><path d="M1922 103h0"></path><rect x="1876" y="92" width="46" height="22" rx="0" ry="0"></rect><text x="1899" y="107">BY</text></g><path d="M1922 103h10"></path><path d="M1932 103h10"></path><g class="non-terminal"><path d="M1942 103h0"></path><path d="M2060 103h0"></path><rect x="1942" y="92" width="118" height="22" rx="8" ry="8"></rect><text x="2001" y="107">groupByItem</text></g><path d="M2060 103h10"></path><g><path d="M2070 103h0"></path><path d="M2362 103h0"></path><path d="M2070 103a10 10 0 0 0 10 -10v-15a10 10 0 0 1 10 -10"></path><g><path d="M2090 68h252"></path></g><path d="M2342 68a10 10 0 0 1 10 10v15a10 10 0 0 0 10 10"></path><path d="M2070 103h20"></path><g><path d="M2090 103h0"></path><path d="M2342 103h0"></path><path d="M2090 103h10"></path><g><path d="M2100 103h0"></path><path d="M2332 103h0"></path><path d="M2100 103h20"></path><g><path d="M2120 103h0"></path><path d="M2312 103h0"></path><g class="terminal"><path d="M2120 103h0"></path><path d="M2174 103h0"></path><rect x="2120" y="92" width="54" height="22" rx="0" ry="0"></rect><text x="2147" y="107">','</text></g><path d="M2174 103h10"></path><path d="M2184 103h10"></path><g class="non-terminal"><path d="M2194 103h0"></path><path d="M2312 103h0"></path><rect x="2194" y="92" width="118" height="22" rx="8" ry="8"></rect><text x="2253" y="107">groupByItem</text></g></g><path d="M2312 103h20"></path></g><path d="M2332 103h10"></path><path d="M2100 103a10 10 0 0 0 -10 10v15a10 10 0 0 0 10 10"></path><g><path d="M2100 138h232"></path></g><path d="M2332 138a10 10 0 0 0 10 -10v-15a10 10 0 0 0 -10 -10"></path></g><path d="M2342 103h20"></path></g><g><path d="M2362 103h0"></path><path d="M2602 103h0"></path><path d="M2362 103a10 10 0 0 0 10 -10v-15a10 10 0 0 1 10 -10"></path><g><path d="M2382 68h200"></path></g><path d="M2582 68a10 10 0 0 1 10 10v15a10 10 0 0 0 10 10"></path><path d="M2362 103h20"></path><g><path d="M2382 103h0"></path><path d="M2582 103h0"></path><path d="M2382 103h20"></path><g><path d="M2402 103h0"></path><path d="M2562 103h0"></path><g class="terminal"><path d="M2402 103h0"></path><path d="M2464 103h0"></path><rect x="2402" y="92" width="62" height="22" rx="0" ry="0"></rect><text x="2433" y="107">WITH</text></g><path d="M2464 103h10"></path><path d="M2474 103h10"></path><g class="terminal"><path d="M2484 103h0"></path><path d="M2562 103h0"></path><rect x="2484" y="92" width="78" height="22" rx="0" ry="0"></rect><text x="2523" y="107">ROLLUP</text></g></g><path d="M2562 103h20"></path></g><path d="M2582 103h20"></path></g></g><path d="M2602 103h20"></path></g><path d="M2622 103h20"></path></g><g><path d="M2642 103h0"></path><path d="M2930 103h0"></path><path d="M2642 103a10 10 0 0 0 10 -10v-15a10 10 0 0 1 10 -10"></path><g><path d="M2662 68h248"></path></g><path d="M2910 68a10 10 0 0 1 10 10v15a10 10 0 0 0 10 10"></path><path d="M2642 103h20"></path><g><path d="M2662 103h0"></path><path d="M2910 103h0"></path><path d="M2662 103h20"></path><g><path d="M2682 103h0"></path><path d="M2890 103h0"></path><g class="terminal"><path d="M2682 103h0"></path><path d="M2760 103h0"></path><rect x="2682" y="92" width="78" height="22" rx="0" ry="0"></rect><text x="2721" y="107">HAVING</text></g><path d="M2760 103h10"></path><path d="M2770 103h10"></path><g class="non-terminal"><path d="M2780 103h0"></path><path d="M2890 103h0"></path><rect x="2780" y="92" width="110" height="22" rx="8" ry="8"></rect><text x="2835" y="107">expression</text></g></g><path d="M2890 103h20"></path></g><path d="M2910 103h20"></path></g></g><path d="M2930 103h20"></path></g><path d="M2950 103h20"></path></g><g><path d="M2970 103h0"></path><path d="M3658 103h0"></path><path d="M2970 103a10 10 0 0 0 10 -10v-39a10 10 0 0 1 10 -10"></path><g><path d="M2990 44h648"></path></g><path d="M3638 44a10 10 0 0 1 10 10v39a10 10 0 0 0 10 10"></path><path d="M2970 103h20"></path><g><path d="M2990 103h0"></path><path d="M3638 103h0"></path><path d="M2990 103h20"></path><g><path d="M3010 103h0"></path><path d="M3618 103h0"></path><g class="terminal"><path d="M3010 103h0"></path><path d="M3080 103h0"></path><rect x="3010" y="92" width="70" height="22" rx="0" ry="0"></rect><text x="3045" y="107">ORDER</text></g><path d="M3080 103h10"></path><path d="M3090 103h10"></path><g class="terminal"><path d="M3100 103h0"></path><path d="M3146 103h0"></path><rect x="3100" y="92" width="46" height="22" rx="0" ry="0"></rect><text x="3123" y="107">BY</text></g><path d="M3146 103h10"></path><path d="M3156 103h10"></path><g class="non-terminal"><path d="M3166 103h0"></path><path d="M3300 103h0"></path><rect x="3166" y="92" width="134" height="22" rx="8" ry="8"></rect><text x="3233" y="107">fullFieldName</text></g><path d="M3300 103h10"></path><g><path d="M3310 103h0"></path><path d="M3618 103h0"></path><path d="M3310 103a10 10 0 0 0 10 -10v-15a10 10 0 0 1 10 -10"></path><g><path d="M3330 68h268"></path></g><path d="M3598 68a10 10 0 0 1 10 10v15a10 10 0 0 0 10 10"></path><path d="M3310 103h20"></path><g><path d="M3330 103h0"></path><path d="M3598 103h0"></path><path d="M3330 103h10"></path><g><path d="M3340 103h0"></path><path d="M3588 103h0"></path><path d="M3340 103h20"></path><g><path d="M3360 103h0"></path><path d="M3568 103h0"></path><g class="terminal"><path d="M3360 103h0"></path><path d="M3414 103h0"></path><rect x="3360" y="92" width="54" height="22" rx="0" ry="0"></rect><text x="3387" y="107">','</text></g><path d="M3414 103h10"></path><path d="M3424 103h10"></path><g class="non-terminal"><path d="M3434 103h0"></path><path d="M3568 103h0"></path><rect x="3434" y="92" width="134" height="22" rx="8" ry="8"></rect><text x="3501" y="107">fullFieldName</text></g></g><path d="M3568 103h20"></path></g><path d="M3588 103h10"></path><path d="M3340 103a10 10 0 0 0 -10 10v15a10 10 0 0 0 10 10"></path><g><path d="M3340 138h248"></path></g><path d="M3588 138a10 10 0 0 0 10 -10v-15a10 10 0 0 0 -10 -10"></path></g><path d="M3598 103h20"></path></g></g><path d="M3618 103h20"></path></g><path d="M3638 103h20"></path></g><g><path d="M3658 103h0"></path><path d="M3800 103h0"></path><path d="M3658 103a10 10 0 0 0 10 -10v-15a10 10 0 0 1 10 -10"></path><g><path d="M3678 68h102"></path></g><path d="M3780 68a10 10 0 0 1 10 10v15a10 10 0 0 0 10 10"></path><path d="M3658 103h20"></path><g><path d="M3678 103h0"></path><path d="M3780 103h0"></path><path d="M3678 103h20"></path><g><path d="M3698 103h4"></path><path d="M3756 103h4"></path><g class="terminal"><path d="M3702 103h0"></path><path d="M3756 103h0"></path><rect x="3702" y="92" width="54" height="22" rx="0" ry="0"></rect><text x="3729" y="107">ASC</text></g></g><path d="M3760 103h20"></path><path d="M3678 103a10 10 0 0 1 10 10v26a10 10 0 0 0 10 10"></path><g><path d="M3698 149h0"></path><path d="M3760 149h0"></path><g class="terminal"><path d="M3698 149h0"></path><path d="M3760 149h0"></path><rect x="3698" y="138" width="62" height="22" rx="0" ry="0"></rect><text x="3729" y="153">DESC</text></g></g><path d="M3760 149a10 10 0 0 0 10 -10v-26a10 10 0 0 1 10 -10"></path></g><path d="M3780 103h20"></path></g><g><path d="M3800 103h0"></path><path d="M4048 103h0"></path><path d="M3800 103a10 10 0 0 0 10 -10v-15a10 10 0 0 1 10 -10"></path><g><path d="M3820 68h208"></path></g><path d="M4028 68a10 10 0 0 1 10 10v15a10 10 0 0 0 10 10"></path><path d="M3800 103h20"></path><g><path d="M3820 103h0"></path><path d="M4028 103h0"></path><path d="M3820 103h20"></path><g><path d="M3840 103h0"></path><path d="M4008 103h0"></path><g class="terminal"><path d="M3840 103h0"></path><path d="M3910 103h0"></path><rect x="3840" y="92" width="70" height="22" rx="0" ry="0"></rect><text x="3875" y="107">LIMIT</text></g><path d="M3910 103h10"></path><path d="M3920 103h10"></path><g class="non-terminal"><path d="M3930 103h0"></path><path d="M4008 103h0"></path><rect x="3930" y="92" width="78" height="22" rx="8" ry="8"></rect><text x="3969" y="107">number</text></g></g><path d="M4008 103h20"></path></g><path d="M4028 103h20"></path></g><path d="M4048 103h10"></path><g class="terminal"><path d="M4058 103h0"></path><path d="M4112 103h0"></path><rect x="4058" y="92" width="54" height="22" rx="0" ry="0"></rect><text x="4085" y="107">';'</text></g></g><path d="M4112 103h20"></path></g><path d="M 4132 103 h 20 m 0 -10 v 20"></path></g></svg>