<?xml version="1.0" standalone="no"?>
<?xml-stylesheet href="light.css" type="text/css"?>
<!DOCTYPE svg PUBLIC "-//W3C//DTD SVG 1.1//EN" "http://www.w3.org/Graphics/SVG/1.1/DTD/svg11.dtd">
<svg xmlns="http://www.w3.org/2000/svg" class="railroad-diagram" width="1236" height="364" viewBox="0 0 1236 364"><g transform="translate(.5 .5)"><path d="M 20 69 v 20 m 0 -10 h 20.5"></path><g><path d="M40 79h0"></path><path d="M1196 79h0"></path><path d="M40 79h20"></path><g><path d="M60 79h0"></path><path d="M1176 79h0"></path><g class="terminal"><path d="M60 79h0"></path><path d="M122 79h0"></path><rect x="60" y="68" width="62" height="22" rx="0" ry="0"></rect><text x="91" y="83">SHOW</text></g><path d="M122 79h10"></path><g><path d="M132 79h0"></path><path d="M1112 79h0"></path><path d="M132 79h20"></path><g><path d="M152 79h0"></path><path d="M1092 79h0"></path><g><path d="M152 79h0"></path><path d="M286 79h0"></path><path d="M152 79a10 10 0 0 0 10 -10v-15a10 10 0 0 1 10 -10"></path><g><path d="M172 44h94"></path></g><path d="M266 44a10 10 0 0 1 10 10v15a10 10 0 0 0 10 10"></path><path d="M152 79h20"></path><g class="terminal"><path d="M172 79h0"></path><path d="M266 79h0"></path><rect x="172" y="68" width="94" height="22" rx="0" ry="0"></rect><text x="219" y="83">EXTENDED</text></g><path d="M266 79h20"></path></g><g><path d="M286 79h0"></path><path d="M428 79h0"></path><path d="M286 79h20"></path><g><path d="M306 79h4"></path><path d="M404 79h4"></path><g class="terminal"><path d="M310 79h0"></path><path d="M404 79h0"></path><rect x="310" y="68" width="94" height="22" rx="0" ry="0"></rect><text x="357" y="83">SERVICES</text></g></g><path d="M408 79h20"></path><path d="M286 79a10 10 0 0 1 10 10v26a10 10 0 0 0 10 10"></path><g><path d="M306 125h0"></path><path d="M408 125h0"></path><g class="terminal"><path d="M306 125h0"></path><path d="M408 125h0"></path><rect x="306" y="114" width="102" height="22" rx="0" ry="0"></rect><text x="357" y="129">RESOURCES</text></g></g><path d="M408 125a10 10 0 0 0 10 -10v-26a10 10 0 0 1 10 -10"></path><path d="M286 79a10 10 0 0 1 10 10v72a10 10 0 0 0 10 10"></path><g><path d="M306 171h8"></path><path d="M400 171h8"></path><g class="terminal"><path d="M314 171h0"></path><path d="M400 171h0"></path><rect x="314" y="160" width="86" height="22" rx="0" ry="0"></rect><text x="357" y="175">METHODS</text></g></g><path d="M408 171a10 10 0 0 0 10 -10v-72a10 10 0 0 1 10 -10"></path></g><g><path d="M428 79h0"></path><path d="M1092 79h0"></path><path d="M428 79a10 10 0 0 0 10 -10v-39a10 10 0 0 1 10 -10"></path><g><path d="M448 20h624"></path></g><path d="M1072 20a10 10 0 0 1 10 10v39a10 10 0 0 0 10 10"></path><path d="M428 79h20"></path><g><path d="M448 79h0"></path><path d="M1072 79h0"></path><path d="M448 79h20"></path><g><path d="M468 79h0"></path><path d="M1052 79h0"></path><g><path d="M468 79h0"></path><path d="M570 79h0"></path><path d="M468 79h20"></path><g><path d="M488 79h0"></path><path d="M550 79h0"></path><g class="terminal"><path d="M488 79h0"></path><path d="M550 79h0"></path><rect x="488" y="68" width="62" height="22" rx="0" ry="0"></rect><text x="519" y="83">FROM</text></g></g><path d="M550 79h20"></path><path d="M468 79a10 10 0 0 1 10 10v26a10 10 0 0 0 10 10"></path><g><path d="M488 125h8"></path><path d="M542 125h8"></path><g class="terminal"><path d="M496 125h0"></path><path d="M542 125h0"></path><rect x="496" y="114" width="46" height="22" rx="0" ry="0"></rect><text x="519" y="129">IN</text></g></g><path d="M550 125a10 10 0 0 0 10 -10v-26a10 10 0 0 1 10 -10"></path></g><path d="M570 79h10"></path><g class="non-terminal"><path d="M580 79h0"></path><path d="M762 79h0"></path><rect x="580" y="68" width="182" height="22" rx="8" ry="8"></rect><text x="671" y="83">multipartIdentifier</text></g><path d="M762 79h10"></path><g><path d="M772 79h0"></path><path d="M1052 79h0"></path><path d="M772 79a10 10 0 0 0 10 -10v-15a10 10 0 0 1 10 -10"></path><g><path d="M792 44h240"></path></g><path d="M1032 44a10 10 0 0 1 10 10v15a10 10 0 0 0 10 10"></path><path d="M772 79h20"></path><g><path d="M792 79h0"></path><path d="M1032 79h0"></path><path d="M792 79h20"></path><g><path d="M812 79h16"></path><path d="M996 79h16"></path><g class="terminal"><path d="M828 79h0"></path><path d="M890 79h0"></path><rect x="828" y="68" width="62" height="22" rx="0" ry="0"></rect><text x="859" y="83">LIKE</text></g><path d="M890 79h10"></path><path d="M900 79h10"></path><g class="non-terminal"><path d="M910 79h0"></path><path d="M996 79h0"></path><rect x="910" y="68" width="86" height="22" rx="8" ry="8"></rect><text x="953" y="83">pattern</text></g></g><path d="M1012 79h20"></path><path d="M792 79a10 10 0 0 1 10 10v26a10 10 0 0 0 10 10"></path><g><path d="M812 125h0"></path><path d="M1012 125h0"></path><g class="terminal"><path d="M812 125h0"></path><path d="M882 125h0"></path><rect x="812" y="114" width="70" height="22" rx="0" ry="0"></rect><text x="847" y="129">WHERE</text></g><path d="M882 125h10"></path><path d="M892 125h10"></path><g class="non-terminal"><path d="M902 125h0"></path><path d="M1012 125h0"></path><rect x="902" y="114" width="110" height="22" rx="8" ry="8"></rect><text x="957" y="129">expression</text></g></g><path d="M1012 125a10 10 0 0 0 10 -10v-26a10 10 0 0 1 10 -10"></path></g><path d="M1032 79h20"></path></g></g><path d="M1052 79h20"></path></g><path d="M1072 79h20"></path></g></g><path d="M1092 79h20"></path><path d="M132 79a10 10 0 0 1 10 10v118a10 10 0 0 0 10 10"></path><g><path d="M152 217h419"></path><path d="M673 217h419"></path><g class="terminal"><path d="M571 217h0"></path><path d="M673 217h0"></path><rect x="571" y="206" width="102" height="22" rx="0" ry="0"></rect><text x="622" y="221">PROVIDERS</text></g></g><path d="M1092 217a10 10 0 0 0 10 -10v-118a10 10 0 0 1 10 -10"></path><path d="M132 79a10 10 0 0 1 10 10v164a10 10 0 0 0 10 10"></path><g><path d="M152 263h439"></path><path d="M653 263h439"></path><g class="terminal"><path d="M591 263h0"></path><path d="M653 263h0"></path><rect x="591" y="252" width="62" height="22" rx="0" ry="0"></rect><text x="622" y="267">AUTH</text></g></g><path d="M1092 263a10 10 0 0 0 10 -10v-164a10 10 0 0 1 10 -10"></path><path d="M132 79a10 10 0 0 1 10 10v234a10 10 0 0 0 10 10"></path><g><path d="M152 333h279"></path><path d="M813 333h279"></path><g class="terminal"><path d="M431 333h0"></path><path d="M509 333h0"></path><rect x="431" y="322" width="78" height="22" rx="0" ry="0"></rect><text x="470" y="337">INSERT</text></g><path d="M509 333h10"></path><g><path d="M519 333h0"></path><path d="M621 333h0"></path><path d="M519 333a10 10 0 0 0 10 -10v-15a10 10 0 0 1 10 -10"></path><g><path d="M539 298h62"></path></g><path d="M601 298a10 10 0 0 1 10 10v15a10 10 0 0 0 10 10"></path><path d="M519 333h20"></path><g class="terminal"><path d="M539 333h0"></path><path d="M601 333h0"></path><rect x="539" y="322" width="62" height="22" rx="0" ry="0"></rect><text x="570" y="337">INTO</text></g><path d="M601 333h20"></path></g><path d="M621 333h10"></path><g class="non-terminal"><path d="M631 333h0"></path><path d="M813 333h0"></path><rect x="631" y="322" width="182" height="22" rx="8" ry="8"></rect><text x="722" y="337">multipartIdentifier</text></g></g><path d="M1092 333a10 10 0 0 0 10 -10v-234a10 10 0 0 1 10 -10"></path></g><path d="M1112 79h10"></path><g class="terminal"><path d="M1122 79h0"></path><path d="M1176 79h0"></path><rect x="1122" y="68" width="54" height="22" rx="0" ry="0"></rect><text x="1149" y="83">';'</text></g></g><path d="M1176 79h20"></path></g><path d="M 1196 79 h 20 m 0 -10 v 20"></path></g></svg>