<?xml version="1.0" standalone="no"?>
<?xml-stylesheet href="light.css" type="text/css"?>
<!DOCTYPE svg PUBLIC "-//W3C//DTD SVG 1.1//EN" "http://www.w3.org/Graphics/SVG/1.1/DTD/svg11.dtd">
<svg xmlns="http://www.w3.org/2000/svg" class="railroad-diagram" width="450" height="62" viewBox="0 0 450 62"><g transform="translate(.5 .5)"><path d="M 20 21 v 20 m 0 -10 h 20.5"></path><g><path d="M40 31h0"></path><path d="M410 31h0"></path><path d="M40 31h20"></path><g><path d="M60 31h0"></path><path d="M390 31h0"></path><g class="terminal"><path d="M60 31h0"></path><path d="M114 31h0"></path><rect x="60" y="20" width="54" height="22" rx="0" ry="0"></rect><text x="87" y="35">USE</text></g><path d="M114 31h10"></path><path d="M124 31h10"></path><g class="non-terminal"><path d="M134 31h0"></path><path d="M316 31h0"></path><rect x="134" y="20" width="182" height="22" rx="8" ry="8"></rect><text x="225" y="35">multipartIdentifier</text></g><path d="M316 31h10"></path><path d="M326 31h10"></path><g class="terminal"><path d="M336 31h0"></path><path d="M390 31h0"></path><rect x="336" y="20" width="54" height="22" rx="0" ry="0"></rect><text x="363" y="35">';'</text></g></g><path d="M390 31h20"></path></g><path d="M 410 31 h 20 m 0 -10 v 20"></path></g></svg>