<?xml version="1.0" standalone="no"?>
<!DOCTYPE svg PUBLIC "-//W3C//DTD SVG 20010904//EN"
 "http://www.w3.org/TR/2001/REC-SVG-20010904/DTD/svg10.dtd">
<svg version="1.0" xmlns="http://www.w3.org/2000/svg"
 width="512.000000pt" height="512.000000pt" viewBox="0 0 512.000000 512.000000"
 preserveAspectRatio="xMidYMid meet">
<metadata>
Created by potrace 1.14, written by Peter Selinger 2001-2017
</metadata>
<g transform="translate(0.000000,512.000000) scale(0.100000,-0.100000)"
fill="#000000" stroke="none">
<path d="M495 5101 c-225 -65 -386 -220 -463 -446 l-27 -80 -3 -1990 c-2
-1466 0 -2004 8 -2045 7 -30 30 -93 52 -140 57 -119 176 -239 298 -299 157
-76 -1 -71 2190 -78 2211 -7 2039 -12 2203 69 63 32 101 60 163 122 90 90 129
153 171 271 l28 80 0 2025 0 2025 -26 63 c-109 257 -308 405 -579 432 -56 6
-897 9 -2025 9 -1799 0 -1934 -2 -1990 -18z m1868 -2341 l227 -105 -2 -189 -3
-189 -225 -104 c-417 -193 -713 -330 -1052 -487 -185 -86 -341 -156 -347 -156
-8 0 -11 50 -9 171 l3 172 271 126 c149 69 435 203 637 296 201 94 363 173
359 176 -4 3 -52 26 -107 51 -228 105 -958 443 -1057 490 l-108 51 0 167 c0
92 2 169 5 172 3 3 270 -117 593 -266 323 -150 689 -319 815 -376z m737 470
c157 -72 362 -167 455 -211 94 -43 310 -143 480 -222 l310 -143 3 -185 2 -185
-47 -23 c-27 -13 -284 -133 -573 -266 -289 -134 -633 -293 -764 -354 -131 -61
-243 -111 -247 -111 -5 0 -9 78 -9 173 l1 172 172 80 c95 43 316 146 492 228
176 81 384 178 463 214 79 36 139 69 135 73 -7 7 -235 113 -1108 517 l-150 70
-3 176 -2 176 52 -23 c29 -13 181 -83 338 -156z"/>
</g>
</svg>
