<?xml version="1.0" standalone="no"?>
<!DOCTYPE svg PUBLIC "-//W3C//DTD SVG 20010904//EN"
 "http://www.w3.org/TR/2001/REC-SVG-20010904/DTD/svg10.dtd">
<svg version="1.0" xmlns="http://www.w3.org/2000/svg"
 width="161.000000pt" height="161.000000pt" viewBox="0 0 161.000000 161.000000"
 preserveAspectRatio="xMidYMid meet">
<metadata>
Created by potrace 1.11, written by Peter Selinger 2001-2013
</metadata>
<g transform="translate(0.000000,161.000000) scale(0.100000,-0.100000)"
fill="#000000" stroke="none">
<path d="M125 1591 c-51 -23 -101 -80 -115 -130 -7 -27 -10 -250 -8 -679 l3
-639 29 -41 c18 -27 47 -51 80 -67 l52 -25 650 2 651 3 40 28 c22 15 50 46 64
70 l24 42 3 640 c3 708 4 690 -61 753 -65 63 -55 62 -746 62 -584 0 -629 -2
-666 -19z m439 -641 l246 -114 0 -61 -1 -60 -215 -100 c-119 -55 -233 -108
-255 -117 l-40 -18 3 57 3 56 193 90 c106 50 189 93 185 97 -4 4 -92 47 -195
95 l-188 88 0 54 c0 30 4 53 9 51 5 -1 119 -55 255 -118z m550 0 l247 -115 -3
-60 -3 -59 -250 -117 -250 -117 -3 45 c-2 25 -1 51 1 57 3 6 91 51 196 100
105 49 189 92 186 95 -3 3 -90 44 -193 92 l-187 87 -3 57 c-2 31 1 55 6 54 5
-2 120 -56 256 -119z"/>
</g>
</svg>
