<?xml version="1.0" encoding="UTF-8" standalone="no"?>
<!DOCTYPE svg PUBLIC "-//W3C//DTD SVG 1.1//EN" "http://www.w3.org/Graphics/SVG/1.1/DTD/svg11.dtd">
<svg class="railroad-diagram" width="353" height="138" viewBox="0 0 353 138" id="frameStart" xmlns="http://www.w3.org/2000/svg" xmlns:xlink="http://www.w3.org/1999/xlink"><g transform="translate(.5 .5)"><g><path d="M20 21v20m0 -10h20"></path></g><g><path d="M40 31h0"></path><path d="M313 31h0"></path><path d="M40 31h20"></path><g><path d="M60 31h0"></path><g><path d="M60 31h10"></path><path d="M283 31h10"></path><g class="terminal "><path d="M70 31h0"></path><path d="M166.5 31h0"></path><rect x="70" y="20" width="96.5" height="22"></rect><text x="118.25" y="35">UNBOUNDED</text></g><path d="M166.5 31h10"></path><path d="M176.5 31h10"></path><g class="terminal "><path d="M186.5 31h0"></path><path d="M283 31h0"></path><rect x="186.5" y="20" width="96.5" height="22"></rect><text x="234.75" y="35">PRECEDING</text></g></g><path d="M293 31h0"></path></g><path d="M293 31h20"></path><path d="M40 31a10 10 0 0 1 10 10v18a10 10 0 0 0 10 10"></path><g><path d="M60 69h12.75"></path><g><path d="M72.75 69h10"></path><path d="M270.25 69h10"></path><g class="non-terminal "><path d="M82.75 69h0"></path><path d="M153.75 69h0"></path><rect x="82.75" y="58" width="71" height="22" rx="10" ry="10"></rect><text x="118.25" y="73">number</text></g><path d="M153.75 69h10"></path><path d="M163.75 69h10"></path><g class="terminal "><path d="M173.75 69h0"></path><path d="M270.25 69h0"></path><rect x="173.75" y="58" width="96.5" height="22"></rect><text x="222" y="73">PRECEDING</text></g></g><path d="M280.25 69h12.75"></path></g><path d="M293 69a10 10 0 0 0 10 -10v-18a10 10 0 0 1 10 -10"></path><path d="M40 31a10 10 0 0 1 10 10v56a10 10 0 0 0 10 10"></path><g><path d="M60 107h34"></path><g><path d="M94 107h10"></path><path d="M249 107h10"></path><g class="terminal "><path d="M104 107h0"></path><path d="M183.5 107h0"></path><rect x="104" y="96" width="79.5" height="22"></rect><text x="143.75" y="111">CURRENT</text></g><path d="M183.5 107h10"></path><path d="M193.5 107h10"></path><g class="terminal "><path d="M203.5 107h0"></path><path d="M249 107h0"></path><rect x="203.5" y="96" width="45.5" height="22"></rect><text x="226.25" y="111">ROW</text></g></g><path d="M259 107h34"></path></g><path d="M293 107a10 10 0 0 0 10 -10v-56a10 10 0 0 1 10 -10"></path></g><path d="M 313 31 h 20 m 0 -10 v 20"></path></g><defs><style type="text/css"><![CDATA[
svg.railroad-diagram path { stroke-width: 2; stroke: darkgray; fill: rgba(0, 0, 0, 0);}/* All text except comments. */svg.railroad-diagram text { font: bold 12px Hack, "Source Code Pro", monospace; text-anchor: middle; fill: #404040;}/* Comment text */svg.railroad-diagram text.comment { font: italic 10px Hack, "Source Code Pro", monospace; fill: #404040;}/* The terminal boxes. */svg.railroad-diagram g.terminal rect { stroke-width: 2; stroke: #404040; fill: rgba(200, 200, 200, 1);}svg.railroad-diagram g.non-terminal rect { /* The non-terminal boxes. */ stroke-width: 2; stroke: #404040; fill: rgba(255, 255, 255, 1);}/* Multiple choice text, not working atm. */svg.railroad-diagram text.diagram-text { font-size: 12px Hack, "Source Code Pro", monospace; fill: red;}/* Multiple choice text, not working atm. */svg.railroad-diagram path.diagram-text { stroke-width: 1; stroke: red; fill: red; cursor: help;}
 ]]>
</style></defs></svg>