<?xml version="1.0" encoding="UTF-8" standalone="no"?>
<!DOCTYPE svg PUBLIC "-//W3C//DTD SVG 1.1//EN" "http://www.w3.org/Graphics/SVG/1.1/DTD/svg11.dtd">
<svg class="railroad-diagram" width="592" height="62" viewBox="0 0 592 62" id="frameClause" xmlns="http://www.w3.org/2000/svg" xmlns:xlink="http://www.w3.org/1999/xlink"><g transform="translate(.5 .5)"><g><path d="M20 21v20m0 -10h20"></path></g><g><path d="M40 31h0"></path><path d="M552 31h0"></path><path d="M40 31h20"></path><g><path d="M60 31h0"></path><g><path d="M60 31h10"></path><path d="M522 31h10"></path><g class="terminal "><path d="M70 31h0"></path><path d="M124 31h0"></path><rect x="70" y="20" width="54" height="22"></rect><text x="97" y="35">ROWS</text></g><path d="M124 31h10"></path><path d="M134 31h10"></path><g class="terminal "><path d="M144 31h0"></path><path d="M223.5 31h0"></path><rect x="144" y="20" width="79.5" height="22"></rect><text x="183.75" y="35">BETWEEN</text></g><path d="M223.5 31h10"></path><path d="M233.5 31h10"></path><g class="non-terminal "><path d="M243.5 31h0"></path><path d="M348.5 31h0"></path><rect x="243.5" y="20" width="105" height="22" rx="10" ry="10"></rect><text x="296" y="35">frameStart</text></g><path d="M348.5 31h10"></path><path d="M358.5 31h10"></path><g class="terminal "><path d="M368.5 31h0"></path><path d="M414 31h0"></path><rect x="368.5" y="20" width="45.5" height="22"></rect><text x="391.25" y="35">AND</text></g><path d="M414 31h10"></path><path d="M424 31h10"></path><g class="non-terminal "><path d="M434 31h0"></path><path d="M522 31h0"></path><rect x="434" y="20" width="88" height="22" rx="10" ry="10"></rect><text x="478" y="35">frameEnd</text></g></g><path d="M532 31h0"></path></g><path d="M532 31h20"></path></g><path d="M 552 31 h 20 m 0 -10 v 20"></path></g><defs><style type="text/css"><![CDATA[
svg.railroad-diagram path { stroke-width: 2; stroke: darkgray; fill: rgba(0, 0, 0, 0);}/* All text except comments. */svg.railroad-diagram text { font: bold 12px Hack, "Source Code Pro", monospace; text-anchor: middle; fill: #404040;}/* Comment text */svg.railroad-diagram text.comment { font: italic 10px Hack, "Source Code Pro", monospace; fill: #404040;}/* The terminal boxes. */svg.railroad-diagram g.terminal rect { stroke-width: 2; stroke: #404040; fill: rgba(200, 200, 200, 1);}svg.railroad-diagram g.non-terminal rect { /* The non-terminal boxes. */ stroke-width: 2; stroke: #404040; fill: rgba(255, 255, 255, 1);}/* Multiple choice text, not working atm. */svg.railroad-diagram text.diagram-text { font-size: 12px Hack, "Source Code Pro", monospace; fill: red;}/* Multiple choice text, not working atm. */svg.railroad-diagram path.diagram-text { stroke-width: 1; stroke: red; fill: red; cursor: help;}
 ]]>
</style></defs></svg>