<?xml version="1.0" encoding="UTF-8" standalone="no"?>
<!DOCTYPE svg PUBLIC "-//W3C//DTD SVG 1.1//EN" "http://www.w3.org/Graphics/SVG/1.1/DTD/svg11.dtd">
<svg class="railroad-diagram" width="4654.5" height="336" viewBox="0 0 4654.5 336" id="selectStatement" xmlns="http://www.w3.org/2000/svg" xmlns:xlink="http://www.w3.org/1999/xlink"><g transform="translate(.5 .5)"><g><path d="M20 69v20m0 -10h20"></path></g><g><path d="M40 79h0"></path><path d="M4614.5 79h0"></path><path d="M40 79h20"></path><g><path d="M60 79h0"></path><g><path d="M60 79h10"></path><path d="M4584.5 79h10"></path><g><path d="M70 79h0"></path><path d="M215 79h0"></path><path d="M70 79a10 10 0 0 0 10 -10v-7a10 10 0 0 1 10 -10"></path><g><path d="M90 52h105"></path></g><path d="M195 52a10 10 0 0 1 10 10v7a10 10 0 0 0 10 10"></path><path d="M70 79h20"></path><g class="non-terminal "><path d="M90 79h0"></path><path d="M195 79h0"></path><rect x="90" y="68" width="105" height="22" rx="10" ry="10"></rect><text x="142.5" y="83">withClause</text></g><path d="M195 79h20"></path></g><path d="M215 79h10"></path><g class="terminal "><path d="M225 79h0"></path><path d="M296 79h0"></path><rect x="225" y="68" width="71" height="22"></rect><text x="260.5" y="83">SELECT</text></g><path d="M296 79h10"></path><g><path d="M306 79h0"></path><path d="M494 79h0"></path><path d="M306 79a10 10 0 0 0 10 -10v-7a10 10 0 0 1 10 -10"></path><g><path d="M326 52h148"></path></g><path d="M474 52a10 10 0 0 1 10 10v7a10 10 0 0 0 10 10"></path><path d="M306 79h20"></path><g><path d="M326 79h0"></path><path d="M474 79h0"></path><path d="M326 79h20"></path><g><path d="M346 79h0"></path><g><path d="M346 79h10"></path><path d="M444 79h10"></path><g class="terminal "><path d="M356 79h0"></path><path d="M444 79h0"></path><rect x="356" y="68" width="88" height="22"></rect><text x="400" y="83">DISTINCT</text></g></g><path d="M454 79h0"></path></g><path d="M454 79h20"></path></g><path d="M474 79h20"></path></g><g><path d="M494 79h0"></path><path d="M1046.5 79h0"></path><path d="M494 79a10 10 0 0 0 10 -10v-7a10 10 0 0 1 10 -10"></path><g><path d="M514 52h512.5"></path></g><path d="M1026.5 52a10 10 0 0 1 10 10v7a10 10 0 0 0 10 10"></path><path d="M494 79h20"></path><g><path d="M514 79h0"></path><path d="M1026.5 79h0"></path><path d="M514 79h10"></path><g><path d="M524 79h0"></path><path d="M1016.5 79h0"></path><path d="M524 79h20"></path><g><path d="M544 79h193.5"></path><g><path d="M737.5 79h10"></path><path d="M793 79h10"></path><g class="terminal "><path d="M747.5 79h0"></path><path d="M793 79h0"></path><rect x="747.5" y="68" width="45.5" height="22"></rect><text x="770.25" y="83">'*'</text></g></g><path d="M803 79h193.5"></path></g><path d="M996.5 79h20"></path><path d="M524 79a10 10 0 0 1 10 10v50a10 10 0 0 0 10 10"></path><g><path d="M544 149h21.25"></path><g><path d="M565.25 149h10"></path><path d="M965.25 149h10"></path><g class="non-terminal "><path d="M575.25 149h0"></path><path d="M705.75 149h0"></path><rect x="575.25" y="138" width="130.5" height="22" rx="10" ry="10"></rect><text x="640.5" y="153">fullFieldName</text></g><path d="M705.75 149h10"></path><g><path d="M715.75 149h0"></path><path d="M965.25 149h0"></path><path d="M715.75 149a10 10 0 0 0 10 -10v-23a10 10 0 0 1 10 -10"></path><g><path d="M735.75 106h209.5"></path></g><path d="M945.25 106a10 10 0 0 1 10 10v23a10 10 0 0 0 10 10"></path><path d="M715.75 149h20"></path><g><path d="M735.75 149h0"></path><path d="M945.25 149h0"></path><path d="M735.75 149h20"></path><g><path d="M755.75 149h0"></path><g><path d="M755.75 149h10"></path><path d="M915.25 149h10"></path><g><path d="M765.75 149h0"></path><path d="M842.75 149h0"></path><path d="M765.75 149a10 10 0 0 0 10 -10v-7a10 10 0 0 1 10 -10"></path><g><path d="M785.75 122h37"></path></g><path d="M822.75 122a10 10 0 0 1 10 10v7a10 10 0 0 0 10 10"></path><path d="M765.75 149h20"></path><g class="terminal "><path d="M785.75 149h0"></path><path d="M822.75 149h0"></path><rect x="785.75" y="138" width="37" height="22"></rect><text x="804.25" y="153">AS</text></g><path d="M822.75 149h20"></path></g><path d="M842.75 149h10"></path><g class="non-terminal "><path d="M852.75 149h0"></path><path d="M915.25 149h0"></path><rect x="852.75" y="138" width="62.5" height="22" rx="10" ry="10"></rect><text x="884" y="153">alias</text></g></g><path d="M925.25 149h0"></path></g><path d="M925.25 149h20"></path></g><path d="M945.25 149h20"></path></g></g><path d="M975.25 149h21.25"></path></g><path d="M996.5 149a10 10 0 0 0 10 -10v-50a10 10 0 0 1 10 -10"></path><path d="M524 79a10 10 0 0 1 10 10v120a10 10 0 0 0 10 10"></path><g><path d="M544 219h25.5"></path><g><path d="M569.5 219h10"></path><path d="M961 219h10"></path><g class="non-terminal "><path d="M579.5 219h0"></path><path d="M701.5 219h0"></path><rect x="579.5" y="208" width="122" height="22" rx="10" ry="10"></rect><text x="640.5" y="223">functionCall</text></g><path d="M701.5 219h10"></path><g><path d="M711.5 219h0"></path><path d="M961 219h0"></path><path d="M711.5 219a10 10 0 0 0 10 -10v-23a10 10 0 0 1 10 -10"></path><g><path d="M731.5 176h209.5"></path></g><path d="M941 176a10 10 0 0 1 10 10v23a10 10 0 0 0 10 10"></path><path d="M711.5 219h20"></path><g><path d="M731.5 219h0"></path><path d="M941 219h0"></path><path d="M731.5 219h20"></path><g><path d="M751.5 219h0"></path><g><path d="M751.5 219h10"></path><path d="M911 219h10"></path><g><path d="M761.5 219h0"></path><path d="M838.5 219h0"></path><path d="M761.5 219a10 10 0 0 0 10 -10v-7a10 10 0 0 1 10 -10"></path><g><path d="M781.5 192h37"></path></g><path d="M818.5 192a10 10 0 0 1 10 10v7a10 10 0 0 0 10 10"></path><path d="M761.5 219h20"></path><g class="terminal "><path d="M781.5 219h0"></path><path d="M818.5 219h0"></path><rect x="781.5" y="208" width="37" height="22"></rect><text x="800" y="223">AS</text></g><path d="M818.5 219h20"></path></g><path d="M838.5 219h10"></path><g class="non-terminal "><path d="M848.5 219h0"></path><path d="M911 219h0"></path><rect x="848.5" y="208" width="62.5" height="22" rx="10" ry="10"></rect><text x="879.75" y="223">alias</text></g></g><path d="M921 219h0"></path></g><path d="M921 219h20"></path></g><path d="M941 219h20"></path></g></g><path d="M971 219h25.5"></path></g><path d="M996.5 219a10 10 0 0 0 10 -10v-120a10 10 0 0 1 10 -10"></path><path d="M524 79a10 10 0 0 1 10 10v190a10 10 0 0 0 10 10"></path><g><path d="M544 289h0"></path><g><path d="M544 289h10"></path><path d="M986.5 289h10"></path><g class="non-terminal "><path d="M554 289h0"></path><path d="M727 289h0"></path><rect x="554" y="278" width="173" height="22" rx="10" ry="10"></rect><text x="640.5" y="293">windowFunctionCall</text></g><path d="M727 289h10"></path><g><path d="M737 289h0"></path><path d="M986.5 289h0"></path><path d="M737 289a10 10 0 0 0 10 -10v-23a10 10 0 0 1 10 -10"></path><g><path d="M757 246h209.5"></path></g><path d="M966.5 246a10 10 0 0 1 10 10v23a10 10 0 0 0 10 10"></path><path d="M737 289h20"></path><g><path d="M757 289h0"></path><path d="M966.5 289h0"></path><path d="M757 289h20"></path><g><path d="M777 289h0"></path><g><path d="M777 289h10"></path><path d="M936.5 289h10"></path><g><path d="M787 289h0"></path><path d="M864 289h0"></path><path d="M787 289a10 10 0 0 0 10 -10v-7a10 10 0 0 1 10 -10"></path><g><path d="M807 262h37"></path></g><path d="M844 262a10 10 0 0 1 10 10v7a10 10 0 0 0 10 10"></path><path d="M787 289h20"></path><g class="terminal "><path d="M807 289h0"></path><path d="M844 289h0"></path><rect x="807" y="278" width="37" height="22"></rect><text x="825.5" y="293">AS</text></g><path d="M844 289h20"></path></g><path d="M864 289h10"></path><g class="non-terminal "><path d="M874 289h0"></path><path d="M936.5 289h0"></path><rect x="874" y="278" width="62.5" height="22" rx="10" ry="10"></rect><text x="905.25" y="293">alias</text></g></g><path d="M946.5 289h0"></path></g><path d="M946.5 289h20"></path></g><path d="M966.5 289h20"></path></g></g><path d="M996.5 289h0"></path></g><path d="M996.5 289a10 10 0 0 0 10 -10v-190a10 10 0 0 1 10 -10"></path></g><path d="M1016.5 79h10"></path><path d="M524 79a10 10 0 0 0 -10 10v217a10 10 0 0 0 10 10"></path><g><path d="M524 316h492.5"></path></g><path d="M1016.5 316a10 10 0 0 0 10 -10v-217a10 10 0 0 0 -10 -10"></path></g><path d="M1026.5 79h20"></path></g><g><path d="M1046.5 79h0"></path><path d="M3425.5 79h0"></path><path d="M1046.5 79a10 10 0 0 0 10 -10v-39a10 10 0 0 1 10 -10"></path><g><path d="M1066.5 20h2339"></path></g><path d="M3405.5 20a10 10 0 0 1 10 10v39a10 10 0 0 0 10 10"></path><path d="M1046.5 79h20"></path><g><path d="M1066.5 79h0"></path><path d="M3405.5 79h0"></path><path d="M1066.5 79h20"></path><g><path d="M1086.5 79h0"></path><g><path d="M1086.5 79h10"></path><path d="M3375.5 79h10"></path><g class="terminal "><path d="M1096.5 79h0"></path><path d="M1150.5 79h0"></path><rect x="1096.5" y="68" width="54" height="22"></rect><text x="1123.5" y="83">FROM</text></g><path d="M1150.5 79h10"></path><path d="M1160.5 79h10"></path><g class="non-terminal "><path d="M1170.5 79h0"></path><path d="M1258.5 79h0"></path><rect x="1170.5" y="68" width="88" height="22" rx="10" ry="10"></rect><text x="1214.5" y="83">resource</text></g><path d="M1258.5 79h10"></path><g><path d="M1268.5 79h0"></path><path d="M1885 79h0"></path><path d="M1268.5 79a10 10 0 0 0 10 -10v-23a10 10 0 0 1 10 -10"></path><g><path d="M1288.5 36h576.5"></path></g><path d="M1865 36a10 10 0 0 1 10 10v23a10 10 0 0 0 10 10"></path><path d="M1268.5 79h20"></path><g><path d="M1288.5 79h0"></path><path d="M1865 79h0"></path><path d="M1288.5 79h20"></path><g><path d="M1308.5 79h0"></path><g><path d="M1308.5 79h10"></path><path d="M1835 79h10"></path><g><path d="M1318.5 79h0"></path><path d="M1481 79h0"></path><path d="M1318.5 79a10 10 0 0 0 10 -10v-7a10 10 0 0 1 10 -10"></path><g><path d="M1338.5 52h122.5"></path></g><path d="M1461 52a10 10 0 0 1 10 10v7a10 10 0 0 0 10 10"></path><path d="M1318.5 79h20"></path><g><path d="M1338.5 79h0"></path><path d="M1461 79h0"></path><path d="M1338.5 79h20"></path><g><path d="M1358.5 79h0"></path><g><path d="M1358.5 79h10"></path><path d="M1431 79h10"></path><g class="terminal "><path d="M1368.5 79h0"></path><path d="M1431 79h0"></path><rect x="1368.5" y="68" width="62.5" height="22"></rect><text x="1399.75" y="83">OUTER</text></g></g><path d="M1441 79h0"></path></g><path d="M1441 79h20"></path></g><path d="M1461 79h20"></path></g><path d="M1481 79h10"></path><g class="terminal "><path d="M1491 79h0"></path><path d="M1545 79h0"></path><rect x="1491" y="68" width="54" height="22"></rect><text x="1518" y="83">JOIN</text></g><path d="M1545 79h10"></path><path d="M1555 79h10"></path><g class="non-terminal "><path d="M1565 79h0"></path><path d="M1653 79h0"></path><rect x="1565" y="68" width="88" height="22" rx="10" ry="10"></rect><text x="1609" y="83">resource</text></g><path d="M1653 79h10"></path><path d="M1663 79h10"></path><g class="terminal "><path d="M1673 79h0"></path><path d="M1710 79h0"></path><rect x="1673" y="68" width="37" height="22"></rect><text x="1691.5" y="83">ON</text></g><path d="M1710 79h10"></path><path d="M1720 79h10"></path><g class="non-terminal "><path d="M1730 79h0"></path><path d="M1835 79h0"></path><rect x="1730" y="68" width="105" height="22" rx="10" ry="10"></rect><text x="1782.5" y="83">expression</text></g></g><path d="M1845 79h0"></path></g><path d="M1845 79h20"></path></g><path d="M1865 79h20"></path></g><g><path d="M1885 79h0"></path><path d="M2172.5 79h0"></path><path d="M1885 79a10 10 0 0 0 10 -10v-7a10 10 0 0 1 10 -10"></path><g><path d="M1905 52h247.5"></path></g><path d="M2152.5 52a10 10 0 0 1 10 10v7a10 10 0 0 0 10 10"></path><path d="M1885 79h20"></path><g><path d="M1905 79h0"></path><path d="M2152.5 79h0"></path><path d="M1905 79h20"></path><g><path d="M1925 79h0"></path><g><path d="M1925 79h10"></path><path d="M2122.5 79h10"></path><g class="terminal "><path d="M1935 79h0"></path><path d="M1997.5 79h0"></path><rect x="1935" y="68" width="62.5" height="22"></rect><text x="1966.25" y="83">WHERE</text></g><path d="M1997.5 79h10"></path><path d="M2007.5 79h10"></path><g class="non-terminal "><path d="M2017.5 79h0"></path><path d="M2122.5 79h0"></path><rect x="2017.5" y="68" width="105" height="22" rx="10" ry="10"></rect><text x="2070" y="83">expression</text></g></g><path d="M2132.5 79h0"></path></g><path d="M2132.5 79h20"></path></g><path d="M2152.5 79h20"></path></g><g><path d="M2172.5 79h0"></path><path d="M3079.5 79h0"></path><path d="M2172.5 79a10 10 0 0 0 10 -10v-23a10 10 0 0 1 10 -10"></path><g><path d="M2192.5 36h867"></path></g><path d="M3059.5 36a10 10 0 0 1 10 10v23a10 10 0 0 0 10 10"></path><path d="M2172.5 79h20"></path><g><path d="M2192.5 79h0"></path><path d="M3059.5 79h0"></path><path d="M2192.5 79h20"></path><g><path d="M2212.5 79h0"></path><g><path d="M2212.5 79h10"></path><path d="M3029.5 79h10"></path><g class="terminal "><path d="M2222.5 79h0"></path><path d="M2285 79h0"></path><rect x="2222.5" y="68" width="62.5" height="22"></rect><text x="2253.75" y="83">GROUP</text></g><path d="M2285 79h10"></path><path d="M2295 79h10"></path><g class="terminal "><path d="M2305 79h0"></path><path d="M2342 79h0"></path><rect x="2305" y="68" width="37" height="22"></rect><text x="2323.5" y="83">BY</text></g><path d="M2342 79h10"></path><path d="M2352 79h10"></path><g class="non-terminal "><path d="M2362 79h0"></path><path d="M2475.5 79h0"></path><rect x="2362" y="68" width="113.5" height="22" rx="10" ry="10"></rect><text x="2418.75" y="83">groupByItem</text></g><path d="M2475.5 79h10"></path><g><path d="M2485.5 79h0"></path><path d="M2784.5 79h0"></path><path d="M2485.5 79a10 10 0 0 0 10 -10v-7a10 10 0 0 1 10 -10"></path><g><path d="M2505.5 52h259"></path></g><path d="M2764.5 52a10 10 0 0 1 10 10v7a10 10 0 0 0 10 10"></path><path d="M2485.5 79h20"></path><g><path d="M2505.5 79h0"></path><path d="M2764.5 79h0"></path><path d="M2505.5 79h10"></path><g><path d="M2515.5 79h0"></path><path d="M2754.5 79h0"></path><path d="M2515.5 79h20"></path><g><path d="M2535.5 79h0"></path><g><path d="M2535.5 79h10"></path><path d="M2724.5 79h10"></path><g class="terminal "><path d="M2545.5 79h0"></path><path d="M2591 79h0"></path><rect x="2545.5" y="68" width="45.5" height="22"></rect><text x="2568.25" y="83">','</text></g><path d="M2591 79h10"></path><path d="M2601 79h10"></path><g class="non-terminal "><path d="M2611 79h0"></path><path d="M2724.5 79h0"></path><rect x="2611" y="68" width="113.5" height="22" rx="10" ry="10"></rect><text x="2667.75" y="83">groupByItem</text></g></g><path d="M2734.5 79h0"></path></g><path d="M2734.5 79h20"></path></g><path d="M2754.5 79h10"></path><path d="M2515.5 79a10 10 0 0 0 -10 10v7a10 10 0 0 0 10 10"></path><g><path d="M2515.5 106h239"></path></g><path d="M2754.5 106a10 10 0 0 0 10 -10v-7a10 10 0 0 0 -10 -10"></path></g><path d="M2764.5 79h20"></path></g><g><path d="M2784.5 79h0"></path><path d="M3029.5 79h0"></path><path d="M2784.5 79a10 10 0 0 0 10 -10v-7a10 10 0 0 1 10 -10"></path><g><path d="M2804.5 52h205"></path></g><path d="M3009.5 52a10 10 0 0 1 10 10v7a10 10 0 0 0 10 10"></path><path d="M2784.5 79h20"></path><g><path d="M2804.5 79h0"></path><path d="M3009.5 79h0"></path><path d="M2804.5 79h20"></path><g><path d="M2824.5 79h0"></path><g><path d="M2824.5 79h10"></path><path d="M2979.5 79h10"></path><g class="terminal "><path d="M2834.5 79h0"></path><path d="M2888.5 79h0"></path><rect x="2834.5" y="68" width="54" height="22"></rect><text x="2861.5" y="83">WITH</text></g><path d="M2888.5 79h10"></path><path d="M2898.5 79h10"></path><g class="terminal "><path d="M2908.5 79h0"></path><path d="M2979.5 79h0"></path><rect x="2908.5" y="68" width="71" height="22"></rect><text x="2944" y="83">ROLLUP</text></g></g><path d="M2989.5 79h0"></path></g><path d="M2989.5 79h20"></path></g><path d="M3009.5 79h20"></path></g></g><path d="M3039.5 79h0"></path></g><path d="M3039.5 79h20"></path></g><path d="M3059.5 79h20"></path></g><g><path d="M3079.5 79h0"></path><path d="M3375.5 79h0"></path><path d="M3079.5 79a10 10 0 0 0 10 -10v-7a10 10 0 0 1 10 -10"></path><g><path d="M3099.5 52h256"></path></g><path d="M3355.5 52a10 10 0 0 1 10 10v7a10 10 0 0 0 10 10"></path><path d="M3079.5 79h20"></path><g><path d="M3099.5 79h0"></path><path d="M3355.5 79h0"></path><path d="M3099.5 79h20"></path><g><path d="M3119.5 79h0"></path><g><path d="M3119.5 79h10"></path><path d="M3325.5 79h10"></path><g class="terminal "><path d="M3129.5 79h0"></path><path d="M3200.5 79h0"></path><rect x="3129.5" y="68" width="71" height="22"></rect><text x="3165" y="83">HAVING</text></g><path d="M3200.5 79h10"></path><path d="M3210.5 79h10"></path><g class="non-terminal "><path d="M3220.5 79h0"></path><path d="M3325.5 79h0"></path><rect x="3220.5" y="68" width="105" height="22" rx="10" ry="10"></rect><text x="3273" y="83">expression</text></g></g><path d="M3335.5 79h0"></path></g><path d="M3335.5 79h20"></path></g><path d="M3355.5 79h20"></path></g></g><path d="M3385.5 79h0"></path></g><path d="M3385.5 79h20"></path></g><path d="M3405.5 79h20"></path></g><g><path d="M3425.5 79h0"></path><path d="M4121.5 79h0"></path><path d="M3425.5 79a10 10 0 0 0 10 -10v-23a10 10 0 0 1 10 -10"></path><g><path d="M3445.5 36h656"></path></g><path d="M4101.5 36a10 10 0 0 1 10 10v23a10 10 0 0 0 10 10"></path><path d="M3425.5 79h20"></path><g><path d="M3445.5 79h0"></path><path d="M4101.5 79h0"></path><path d="M3445.5 79h20"></path><g><path d="M3465.5 79h0"></path><g><path d="M3465.5 79h10"></path><path d="M4071.5 79h10"></path><g class="terminal "><path d="M3475.5 79h0"></path><path d="M3538 79h0"></path><rect x="3475.5" y="68" width="62.5" height="22"></rect><text x="3506.75" y="83">ORDER</text></g><path d="M3538 79h10"></path><path d="M3548 79h10"></path><g class="terminal "><path d="M3558 79h0"></path><path d="M3595 79h0"></path><rect x="3558" y="68" width="37" height="22"></rect><text x="3576.5" y="83">BY</text></g><path d="M3595 79h10"></path><path d="M3605 79h10"></path><g class="non-terminal "><path d="M3615 79h0"></path><path d="M3745.5 79h0"></path><rect x="3615" y="68" width="130.5" height="22" rx="10" ry="10"></rect><text x="3680.25" y="83">fullFieldName</text></g><path d="M3745.5 79h10"></path><g><path d="M3755.5 79h0"></path><path d="M4071.5 79h0"></path><path d="M3755.5 79a10 10 0 0 0 10 -10v-7a10 10 0 0 1 10 -10"></path><g><path d="M3775.5 52h276"></path></g><path d="M4051.5 52a10 10 0 0 1 10 10v7a10 10 0 0 0 10 10"></path><path d="M3755.5 79h20"></path><g><path d="M3775.5 79h0"></path><path d="M4051.5 79h0"></path><path d="M3775.5 79h10"></path><g><path d="M3785.5 79h0"></path><path d="M4041.5 79h0"></path><path d="M3785.5 79h20"></path><g><path d="M3805.5 79h0"></path><g><path d="M3805.5 79h10"></path><path d="M4011.5 79h10"></path><g class="terminal "><path d="M3815.5 79h0"></path><path d="M3861 79h0"></path><rect x="3815.5" y="68" width="45.5" height="22"></rect><text x="3838.25" y="83">','</text></g><path d="M3861 79h10"></path><path d="M3871 79h10"></path><g class="non-terminal "><path d="M3881 79h0"></path><path d="M4011.5 79h0"></path><rect x="3881" y="68" width="130.5" height="22" rx="10" ry="10"></rect><text x="3946.25" y="83">fullFieldName</text></g></g><path d="M4021.5 79h0"></path></g><path d="M4021.5 79h20"></path></g><path d="M4041.5 79h10"></path><path d="M3785.5 79a10 10 0 0 0 -10 10v7a10 10 0 0 0 10 10"></path><g><path d="M3785.5 106h256"></path></g><path d="M4041.5 106a10 10 0 0 0 10 -10v-7a10 10 0 0 0 -10 -10"></path></g><path d="M4051.5 79h20"></path></g></g><path d="M4081.5 79h0"></path></g><path d="M4081.5 79h20"></path></g><path d="M4101.5 79h20"></path></g><g><path d="M4121.5 79h0"></path><path d="M4275.5 79h0"></path><path d="M4121.5 79a10 10 0 0 0 10 -10v-7a10 10 0 0 1 10 -10"></path><g><path d="M4141.5 52h114"></path></g><path d="M4255.5 52a10 10 0 0 1 10 10v7a10 10 0 0 0 10 10"></path><path d="M4121.5 79h20"></path><g><path d="M4141.5 79h0"></path><path d="M4255.5 79h0"></path><path d="M4141.5 79h20"></path><g><path d="M4161.5 79h4.25"></path><g><path d="M4165.75 79h10"></path><path d="M4221.25 79h10"></path><g class="terminal "><path d="M4175.75 79h0"></path><path d="M4221.25 79h0"></path><rect x="4175.75" y="68" width="45.5" height="22"></rect><text x="4198.5" y="83">ASC</text></g></g><path d="M4231.25 79h4.25"></path></g><path d="M4235.5 79h20"></path><path d="M4141.5 79a10 10 0 0 1 10 10v18a10 10 0 0 0 10 10"></path><g><path d="M4161.5 117h0"></path><g><path d="M4161.5 117h10"></path><path d="M4225.5 117h10"></path><g class="terminal "><path d="M4171.5 117h0"></path><path d="M4225.5 117h0"></path><rect x="4171.5" y="106" width="54" height="22"></rect><text x="4198.5" y="121">DESC</text></g></g><path d="M4235.5 117h0"></path></g><path d="M4235.5 117a10 10 0 0 0 10 -10v-18a10 10 0 0 1 10 -10"></path></g><path d="M4255.5 79h20"></path></g><g><path d="M4275.5 79h0"></path><path d="M4529 79h0"></path><path d="M4275.5 79a10 10 0 0 0 10 -10v-7a10 10 0 0 1 10 -10"></path><g><path d="M4295.5 52h213.5"></path></g><path d="M4509 52a10 10 0 0 1 10 10v7a10 10 0 0 0 10 10"></path><path d="M4275.5 79h20"></path><g><path d="M4295.5 79h0"></path><path d="M4509 79h0"></path><path d="M4295.5 79h20"></path><g><path d="M4315.5 79h0"></path><g><path d="M4315.5 79h10"></path><path d="M4479 79h10"></path><g class="terminal "><path d="M4325.5 79h0"></path><path d="M4388 79h0"></path><rect x="4325.5" y="68" width="62.5" height="22"></rect><text x="4356.75" y="83">LIMIT</text></g><path d="M4388 79h10"></path><path d="M4398 79h10"></path><g class="non-terminal "><path d="M4408 79h0"></path><path d="M4479 79h0"></path><rect x="4408" y="68" width="71" height="22" rx="10" ry="10"></rect><text x="4443.5" y="83">number</text></g></g><path d="M4489 79h0"></path></g><path d="M4489 79h20"></path></g><path d="M4509 79h20"></path></g><path d="M4529 79h10"></path><g class="terminal "><path d="M4539 79h0"></path><path d="M4584.5 79h0"></path><rect x="4539" y="68" width="45.5" height="22"></rect><text x="4561.75" y="83">';'</text></g></g><path d="M4594.5 79h0"></path></g><path d="M4594.5 79h20"></path></g><path d="M 4614.5 79 h 20 m 0 -10 v 20"></path></g><defs><style type="text/css"><![CDATA[
svg.railroad-diagram path { stroke-width: 2; stroke: darkgray; fill: rgba(0, 0, 0, 0);}/* All text except comments. */svg.railroad-diagram text { font: bold 12px Hack, "Source Code Pro", monospace; text-anchor: middle; fill: #404040;}/* Comment text */svg.railroad-diagram text.comment { font: italic 10px Hack, "Source Code Pro", monospace; fill: #404040;}/* The terminal boxes. */svg.railroad-diagram g.terminal rect { stroke-width: 2; stroke: #404040; fill: rgba(200, 200, 200, 1);}svg.railroad-diagram g.non-terminal rect { /* The non-terminal boxes. */ stroke-width: 2; stroke: #404040; fill: rgba(255, 255, 255, 1);}/* Multiple choice text, not working atm. */svg.railroad-diagram text.diagram-text { font-size: 12px Hack, "Source Code Pro", monospace; fill: red;}/* Multiple choice text, not working atm. */svg.railroad-diagram path.diagram-text { stroke-width: 1; stroke: red; fill: red; cursor: help;}
 ]]>
</style></defs></svg>