<?xml version="1.0" encoding="UTF-8" standalone="no"?>
<!DOCTYPE svg PUBLIC "-//W3C//DTD SVG 1.1//EN" "http://www.w3.org/Graphics/SVG/1.1/DTD/svg11.dtd">
<svg class="railroad-diagram" width="967" height="544" viewBox="0 0 967 544" id="windowFunction" xmlns="http://www.w3.org/2000/svg" xmlns:xlink="http://www.w3.org/1999/xlink"><g transform="translate(.5 .5)"><g><path d="M20 21v20m0 -10h20"></path></g><g><path d="M40 31h0"></path><path d="M927 31h0"></path><path d="M40 31h20"></path><g><path d="M60 31h295.5"></path><g><path d="M355.5 31h10"></path><path d="M601.5 31h10"></path><g class="terminal "><path d="M365.5 31h0"></path><path d="M470.5 31h0"></path><rect x="365.5" y="20" width="105" height="22"></rect><text x="418" y="35">ROW_NUMBER</text></g><path d="M470.5 31h10"></path><path d="M480.5 31h10"></path><g class="terminal "><path d="M490.5 31h0"></path><path d="M536 31h0"></path><rect x="490.5" y="20" width="45.5" height="22"></rect><text x="513.25" y="35">'('</text></g><path d="M536 31h10"></path><path d="M546 31h10"></path><g class="terminal "><path d="M556 31h0"></path><path d="M601.5 31h0"></path><rect x="556" y="20" width="45.5" height="22"></rect><text x="578.75" y="35">')'</text></g></g><path d="M611.5 31h295.5"></path></g><path d="M907 31h20"></path><path d="M40 31a10 10 0 0 1 10 10v18a10 10 0 0 0 10 10"></path><g><path d="M60 69h321"></path><g><path d="M381 69h10"></path><path d="M576 69h10"></path><g class="terminal "><path d="M391 69h0"></path><path d="M445 69h0"></path><rect x="391" y="58" width="54" height="22"></rect><text x="418" y="73">RANK</text></g><path d="M445 69h10"></path><path d="M455 69h10"></path><g class="terminal "><path d="M465 69h0"></path><path d="M510.5 69h0"></path><rect x="465" y="58" width="45.5" height="22"></rect><text x="487.75" y="73">'('</text></g><path d="M510.5 69h10"></path><path d="M520.5 69h10"></path><g class="terminal "><path d="M530.5 69h0"></path><path d="M576 69h0"></path><rect x="530.5" y="58" width="45.5" height="22"></rect><text x="553.25" y="73">')'</text></g></g><path d="M586 69h321"></path></g><path d="M907 69a10 10 0 0 0 10 -10v-18a10 10 0 0 1 10 -10"></path><path d="M40 31a10 10 0 0 1 10 10v56a10 10 0 0 0 10 10"></path><g><path d="M60 107h295.5"></path><g><path d="M355.5 107h10"></path><path d="M601.5 107h10"></path><g class="terminal "><path d="M365.5 107h0"></path><path d="M470.5 107h0"></path><rect x="365.5" y="96" width="105" height="22"></rect><text x="418" y="111">DENSE_RANK</text></g><path d="M470.5 107h10"></path><path d="M480.5 107h10"></path><g class="terminal "><path d="M490.5 107h0"></path><path d="M536 107h0"></path><rect x="490.5" y="96" width="45.5" height="22"></rect><text x="513.25" y="111">'('</text></g><path d="M536 107h10"></path><path d="M546 107h10"></path><g class="terminal "><path d="M556 107h0"></path><path d="M601.5 107h0"></path><rect x="556" y="96" width="45.5" height="22"></rect><text x="578.75" y="111">')'</text></g></g><path d="M611.5 107h295.5"></path></g><path d="M907 107a10 10 0 0 0 10 -10v-56a10 10 0 0 1 10 -10"></path><path d="M40 31a10 10 0 0 1 10 10v94a10 10 0 0 0 10 10"></path><g><path d="M60 145h287"></path><g><path d="M347 145h10"></path><path d="M610 145h10"></path><g class="terminal "><path d="M357 145h0"></path><path d="M479 145h0"></path><rect x="357" y="134" width="122" height="22"></rect><text x="418" y="149">PERCENT_RANK</text></g><path d="M479 145h10"></path><path d="M489 145h10"></path><g class="terminal "><path d="M499 145h0"></path><path d="M544.5 145h0"></path><rect x="499" y="134" width="45.5" height="22"></rect><text x="521.75" y="149">'('</text></g><path d="M544.5 145h10"></path><path d="M554.5 145h10"></path><g class="terminal "><path d="M564.5 145h0"></path><path d="M610 145h0"></path><rect x="564.5" y="134" width="45.5" height="22"></rect><text x="587.25" y="149">')'</text></g></g><path d="M620 145h287"></path></g><path d="M907 145a10 10 0 0 0 10 -10v-94a10 10 0 0 1 10 -10"></path><path d="M40 31a10 10 0 0 1 10 10v132a10 10 0 0 0 10 10"></path><g><path d="M60 183h299.75"></path><g><path d="M359.75 183h10"></path><path d="M597.25 183h10"></path><g class="terminal "><path d="M369.75 183h0"></path><path d="M466.25 183h0"></path><rect x="369.75" y="172" width="96.5" height="22"></rect><text x="418" y="187">CUME_DIST</text></g><path d="M466.25 183h10"></path><path d="M476.25 183h10"></path><g class="terminal "><path d="M486.25 183h0"></path><path d="M531.75 183h0"></path><rect x="486.25" y="172" width="45.5" height="22"></rect><text x="509" y="187">'('</text></g><path d="M531.75 183h10"></path><path d="M541.75 183h10"></path><g class="terminal "><path d="M551.75 183h0"></path><path d="M597.25 183h0"></path><rect x="551.75" y="172" width="45.5" height="22"></rect><text x="574.5" y="187">')'</text></g></g><path d="M607.25 183h299.75"></path></g><path d="M907 183a10 10 0 0 0 10 -10v-132a10 10 0 0 1 10 -10"></path><path d="M40 31a10 10 0 0 1 10 10v170a10 10 0 0 0 10 10"></path><g><path d="M60 221h271.25"></path><g><path d="M331.25 221h10"></path><path d="M625.75 221h10"></path><g class="terminal "><path d="M341.25 221h0"></path><path d="M403.75 221h0"></path><rect x="341.25" y="210" width="62.5" height="22"></rect><text x="372.5" y="225">NTILE</text></g><path d="M403.75 221h10"></path><path d="M413.75 221h10"></path><g class="terminal "><path d="M423.75 221h0"></path><path d="M469.25 221h0"></path><rect x="423.75" y="210" width="45.5" height="22"></rect><text x="446.5" y="225">'('</text></g><path d="M469.25 221h10"></path><path d="M479.25 221h10"></path><g class="non-terminal "><path d="M489.25 221h0"></path><path d="M560.25 221h0"></path><rect x="489.25" y="210" width="71" height="22" rx="10" ry="10"></rect><text x="524.75" y="225">number</text></g><path d="M560.25 221h10"></path><path d="M570.25 221h10"></path><g class="terminal "><path d="M580.25 221h0"></path><path d="M625.75 221h0"></path><rect x="580.25" y="210" width="45.5" height="22"></rect><text x="603" y="225">')'</text></g></g><path d="M635.75 221h271.25"></path></g><path d="M907 221a10 10 0 0 0 10 -10v-170a10 10 0 0 1 10 -10"></path><path d="M40 31a10 10 0 0 1 10 10v240a10 10 0 0 0 10 10"></path><g><path d="M60 291h4.25"></path><g><path d="M64.25 291h10"></path><path d="M892.75 291h10"></path><g class="terminal "><path d="M74.25 291h0"></path><path d="M119.75 291h0"></path><rect x="74.25" y="280" width="45.5" height="22"></rect><text x="97" y="295">LAG</text></g><path d="M119.75 291h10"></path><path d="M129.75 291h10"></path><g class="terminal "><path d="M139.75 291h0"></path><path d="M185.25 291h0"></path><rect x="139.75" y="280" width="45.5" height="22"></rect><text x="162.5" y="295">'('</text></g><path d="M185.25 291h10"></path><path d="M195.25 291h10"></path><g class="non-terminal "><path d="M205.25 291h0"></path><path d="M310.25 291h0"></path><rect x="205.25" y="280" width="105" height="22" rx="10" ry="10"></rect><text x="257.75" y="295">expression</text></g><path d="M310.25 291h10"></path><g><path d="M320.25 291h0"></path><path d="M837.25 291h0"></path><path d="M320.25 291a10 10 0 0 0 10 -10v-23a10 10 0 0 1 10 -10"></path><g><path d="M340.25 248h477"></path></g><path d="M817.25 248a10 10 0 0 1 10 10v23a10 10 0 0 0 10 10"></path><path d="M320.25 291h20"></path><g><path d="M340.25 291h0"></path><path d="M817.25 291h0"></path><path d="M340.25 291h20"></path><g><path d="M360.25 291h0"></path><g><path d="M360.25 291h10"></path><path d="M787.25 291h10"></path><g class="terminal "><path d="M370.25 291h0"></path><path d="M415.75 291h0"></path><rect x="370.25" y="280" width="45.5" height="22"></rect><text x="393" y="295">','</text></g><path d="M415.75 291h10"></path><path d="M425.75 291h10"></path><g class="non-terminal "><path d="M435.75 291h0"></path><path d="M506.75 291h0"></path><rect x="435.75" y="280" width="71" height="22" rx="10" ry="10"></rect><text x="471.25" y="295">number</text></g><path d="M506.75 291h10"></path><g><path d="M516.75 291h0"></path><path d="M787.25 291h0"></path><path d="M516.75 291a10 10 0 0 0 10 -10v-7a10 10 0 0 1 10 -10"></path><g><path d="M536.75 264h230.5"></path></g><path d="M767.25 264a10 10 0 0 1 10 10v7a10 10 0 0 0 10 10"></path><path d="M516.75 291h20"></path><g><path d="M536.75 291h0"></path><path d="M767.25 291h0"></path><path d="M536.75 291h20"></path><g><path d="M556.75 291h0"></path><g><path d="M556.75 291h10"></path><path d="M737.25 291h10"></path><g class="terminal "><path d="M566.75 291h0"></path><path d="M612.25 291h0"></path><rect x="566.75" y="280" width="45.5" height="22"></rect><text x="589.5" y="295">','</text></g><path d="M612.25 291h10"></path><path d="M622.25 291h10"></path><g class="non-terminal "><path d="M632.25 291h0"></path><path d="M737.25 291h0"></path><rect x="632.25" y="280" width="105" height="22" rx="10" ry="10"></rect><text x="684.75" y="295">expression</text></g></g><path d="M747.25 291h0"></path></g><path d="M747.25 291h20"></path></g><path d="M767.25 291h20"></path></g></g><path d="M797.25 291h0"></path></g><path d="M797.25 291h20"></path></g><path d="M817.25 291h20"></path></g><path d="M837.25 291h10"></path><g class="terminal "><path d="M847.25 291h0"></path><path d="M892.75 291h0"></path><rect x="847.25" y="280" width="45.5" height="22"></rect><text x="870" y="295">')'</text></g></g><path d="M902.75 291h4.25"></path></g><path d="M907 291a10 10 0 0 0 10 -10v-240a10 10 0 0 1 10 -10"></path><path d="M40 31a10 10 0 0 1 10 10v310a10 10 0 0 0 10 10"></path><g><path d="M60 361h0"></path><g><path d="M60 361h10"></path><path d="M897 361h10"></path><g class="terminal "><path d="M70 361h0"></path><path d="M124 361h0"></path><rect x="70" y="350" width="54" height="22"></rect><text x="97" y="365">LEAD</text></g><path d="M124 361h10"></path><path d="M134 361h10"></path><g class="terminal "><path d="M144 361h0"></path><path d="M189.5 361h0"></path><rect x="144" y="350" width="45.5" height="22"></rect><text x="166.75" y="365">'('</text></g><path d="M189.5 361h10"></path><path d="M199.5 361h10"></path><g class="non-terminal "><path d="M209.5 361h0"></path><path d="M314.5 361h0"></path><rect x="209.5" y="350" width="105" height="22" rx="10" ry="10"></rect><text x="262" y="365">expression</text></g><path d="M314.5 361h10"></path><g><path d="M324.5 361h0"></path><path d="M841.5 361h0"></path><path d="M324.5 361a10 10 0 0 0 10 -10v-23a10 10 0 0 1 10 -10"></path><g><path d="M344.5 318h477"></path></g><path d="M821.5 318a10 10 0 0 1 10 10v23a10 10 0 0 0 10 10"></path><path d="M324.5 361h20"></path><g><path d="M344.5 361h0"></path><path d="M821.5 361h0"></path><path d="M344.5 361h20"></path><g><path d="M364.5 361h0"></path><g><path d="M364.5 361h10"></path><path d="M791.5 361h10"></path><g class="terminal "><path d="M374.5 361h0"></path><path d="M420 361h0"></path><rect x="374.5" y="350" width="45.5" height="22"></rect><text x="397.25" y="365">','</text></g><path d="M420 361h10"></path><path d="M430 361h10"></path><g class="non-terminal "><path d="M440 361h0"></path><path d="M511 361h0"></path><rect x="440" y="350" width="71" height="22" rx="10" ry="10"></rect><text x="475.5" y="365">number</text></g><path d="M511 361h10"></path><g><path d="M521 361h0"></path><path d="M791.5 361h0"></path><path d="M521 361a10 10 0 0 0 10 -10v-7a10 10 0 0 1 10 -10"></path><g><path d="M541 334h230.5"></path></g><path d="M771.5 334a10 10 0 0 1 10 10v7a10 10 0 0 0 10 10"></path><path d="M521 361h20"></path><g><path d="M541 361h0"></path><path d="M771.5 361h0"></path><path d="M541 361h20"></path><g><path d="M561 361h0"></path><g><path d="M561 361h10"></path><path d="M741.5 361h10"></path><g class="terminal "><path d="M571 361h0"></path><path d="M616.5 361h0"></path><rect x="571" y="350" width="45.5" height="22"></rect><text x="593.75" y="365">','</text></g><path d="M616.5 361h10"></path><path d="M626.5 361h10"></path><g class="non-terminal "><path d="M636.5 361h0"></path><path d="M741.5 361h0"></path><rect x="636.5" y="350" width="105" height="22" rx="10" ry="10"></rect><text x="689" y="365">expression</text></g></g><path d="M751.5 361h0"></path></g><path d="M751.5 361h20"></path></g><path d="M771.5 361h20"></path></g></g><path d="M801.5 361h0"></path></g><path d="M801.5 361h20"></path></g><path d="M821.5 361h20"></path></g><path d="M841.5 361h10"></path><g class="terminal "><path d="M851.5 361h0"></path><path d="M897 361h0"></path><rect x="851.5" y="350" width="45.5" height="22"></rect><text x="874.25" y="365">')'</text></g></g><path d="M907 361h0"></path></g><path d="M907 361a10 10 0 0 0 10 -10v-310a10 10 0 0 1 10 -10"></path><path d="M40 31a10 10 0 0 1 10 10v348a10 10 0 0 0 10 10"></path><g><path d="M60 399h228.75"></path><g><path d="M288.75 399h10"></path><path d="M668.25 399h10"></path><g class="terminal "><path d="M298.75 399h0"></path><path d="M412.25 399h0"></path><rect x="298.75" y="388" width="113.5" height="22"></rect><text x="355.5" y="403">FIRST_VALUE</text></g><path d="M412.25 399h10"></path><path d="M422.25 399h10"></path><g class="terminal "><path d="M432.25 399h0"></path><path d="M477.75 399h0"></path><rect x="432.25" y="388" width="45.5" height="22"></rect><text x="455" y="403">'('</text></g><path d="M477.75 399h10"></path><path d="M487.75 399h10"></path><g class="non-terminal "><path d="M497.75 399h0"></path><path d="M602.75 399h0"></path><rect x="497.75" y="388" width="105" height="22" rx="10" ry="10"></rect><text x="550.25" y="403">expression</text></g><path d="M602.75 399h10"></path><path d="M612.75 399h10"></path><g class="terminal "><path d="M622.75 399h0"></path><path d="M668.25 399h0"></path><rect x="622.75" y="388" width="45.5" height="22"></rect><text x="645.5" y="403">')'</text></g></g><path d="M678.25 399h228.75"></path></g><path d="M907 399a10 10 0 0 0 10 -10v-348a10 10 0 0 1 10 -10"></path><path d="M40 31a10 10 0 0 1 10 10v386a10 10 0 0 0 10 10"></path><g><path d="M60 437h233"></path><g><path d="M293 437h10"></path><path d="M664 437h10"></path><g class="terminal "><path d="M303 437h0"></path><path d="M408 437h0"></path><rect x="303" y="426" width="105" height="22"></rect><text x="355.5" y="441">LAST_VALUE</text></g><path d="M408 437h10"></path><path d="M418 437h10"></path><g class="terminal "><path d="M428 437h0"></path><path d="M473.5 437h0"></path><rect x="428" y="426" width="45.5" height="22"></rect><text x="450.75" y="441">'('</text></g><path d="M473.5 437h10"></path><path d="M483.5 437h10"></path><g class="non-terminal "><path d="M493.5 437h0"></path><path d="M598.5 437h0"></path><rect x="493.5" y="426" width="105" height="22" rx="10" ry="10"></rect><text x="546" y="441">expression</text></g><path d="M598.5 437h10"></path><path d="M608.5 437h10"></path><g class="terminal "><path d="M618.5 437h0"></path><path d="M664 437h0"></path><rect x="618.5" y="426" width="45.5" height="22"></rect><text x="641.25" y="441">')'</text></g></g><path d="M674 437h233"></path></g><path d="M907 437a10 10 0 0 0 10 -10v-386a10 10 0 0 1 10 -10"></path><path d="M40 31a10 10 0 0 1 10 10v424a10 10 0 0 0 10 10"></path><g><path d="M60 475h159"></path><g><path d="M219 475h10"></path><path d="M738 475h10"></path><g class="terminal "><path d="M229 475h0"></path><path d="M325.5 475h0"></path><rect x="229" y="464" width="96.5" height="22"></rect><text x="277.25" y="479">NTH_VALUE</text></g><path d="M325.5 475h10"></path><path d="M335.5 475h10"></path><g class="terminal "><path d="M345.5 475h0"></path><path d="M391 475h0"></path><rect x="345.5" y="464" width="45.5" height="22"></rect><text x="368.25" y="479">'('</text></g><path d="M391 475h10"></path><path d="M401 475h10"></path><g class="non-terminal "><path d="M411 475h0"></path><path d="M516 475h0"></path><rect x="411" y="464" width="105" height="22" rx="10" ry="10"></rect><text x="463.5" y="479">expression</text></g><path d="M516 475h10"></path><path d="M526 475h10"></path><g class="terminal "><path d="M536 475h0"></path><path d="M581.5 475h0"></path><rect x="536" y="464" width="45.5" height="22"></rect><text x="558.75" y="479">','</text></g><path d="M581.5 475h10"></path><path d="M591.5 475h10"></path><g class="non-terminal "><path d="M601.5 475h0"></path><path d="M672.5 475h0"></path><rect x="601.5" y="464" width="71" height="22" rx="10" ry="10"></rect><text x="637" y="479">number</text></g><path d="M672.5 475h10"></path><path d="M682.5 475h10"></path><g class="terminal "><path d="M692.5 475h0"></path><path d="M738 475h0"></path><rect x="692.5" y="464" width="45.5" height="22"></rect><text x="715.25" y="479">')'</text></g></g><path d="M748 475h159"></path></g><path d="M907 475a10 10 0 0 0 10 -10v-424a10 10 0 0 1 10 -10"></path><path d="M40 31a10 10 0 0 1 10 10v462a10 10 0 0 0 10 10"></path><g><path d="M60 513h331.25"></path><g><path d="M391.25 513h10"></path><path d="M565.75 513h10"></path><g class="non-terminal "><path d="M401.25 513h0"></path><path d="M565.75 513h0"></path><rect x="401.25" y="502" width="164.5" height="22" rx="10" ry="10"></rect><text x="483.5" y="517">aggregateFunction</text></g></g><path d="M575.75 513h331.25"></path></g><path d="M907 513a10 10 0 0 0 10 -10v-462a10 10 0 0 1 10 -10"></path></g><path d="M 927 31 h 20 m 0 -10 v 20"></path></g><defs><style type="text/css"><![CDATA[
svg.railroad-diagram path { stroke-width: 2; stroke: darkgray; fill: rgba(0, 0, 0, 0);}/* All text except comments. */svg.railroad-diagram text { font: bold 12px Hack, "Source Code Pro", monospace; text-anchor: middle; fill: #404040;}/* Comment text */svg.railroad-diagram text.comment { font: italic 10px Hack, "Source Code Pro", monospace; fill: #404040;}/* The terminal boxes. */svg.railroad-diagram g.terminal rect { stroke-width: 2; stroke: #404040; fill: rgba(200, 200, 200, 1);}svg.railroad-diagram g.non-terminal rect { /* The non-terminal boxes. */ stroke-width: 2; stroke: #404040; fill: rgba(255, 255, 255, 1);}/* Multiple choice text, not working atm. */svg.railroad-diagram text.diagram-text { font-size: 12px Hack, "Source Code Pro", monospace; fill: red;}/* Multiple choice text, not working atm. */svg.railroad-diagram path.diagram-text { stroke-width: 1; stroke: red; fill: red; cursor: help;}
 ]]>
</style></defs></svg>