<?xml version="1.0" encoding="UTF-8" standalone="no"?>
<!DOCTYPE svg PUBLIC "-//W3C//DTD SVG 1.1//EN" "http://www.w3.org/Graphics/SVG/1.1/DTD/svg11.dtd">
<svg class="railroad-diagram" width="1873.5" height="132" viewBox="0 0 1873.5 132" id="windowSpec" xmlns="http://www.w3.org/2000/svg" xmlns:xlink="http://www.w3.org/1999/xlink"><g transform="translate(.5 .5)"><g><path d="M20 53v20m0 -10h20"></path></g><g><path d="M40 63h0"></path><path d="M1833.5 63h0"></path><path d="M40 63h20"></path><g><path d="M60 63h0"></path><g><path d="M60 63h10"></path><path d="M1803.5 63h10"></path><g><path d="M70 63h0"></path><path d="M800 63h0"></path><path d="M70 63a10 10 0 0 0 10 -10v-23a10 10 0 0 1 10 -10"></path><g><path d="M90 20h690"></path></g><path d="M780 20a10 10 0 0 1 10 10v23a10 10 0 0 0 10 10"></path><path d="M70 63h20"></path><g><path d="M90 63h0"></path><path d="M780 63h0"></path><path d="M90 63h20"></path><g><path d="M110 63h0"></path><g><path d="M110 63h10"></path><path d="M750 63h10"></path><g class="terminal "><path d="M120 63h0"></path><path d="M216.5 63h0"></path><rect x="120" y="52" width="96.5" height="22"></rect><text x="168.25" y="67">PARTITION</text></g><path d="M216.5 63h10"></path><path d="M226.5 63h10"></path><g class="terminal "><path d="M236.5 63h0"></path><path d="M273.5 63h0"></path><rect x="236.5" y="52" width="37" height="22"></rect><text x="255" y="67">BY</text></g><path d="M273.5 63h10"></path><path d="M283.5 63h10"></path><g class="non-terminal "><path d="M293.5 63h0"></path><path d="M424 63h0"></path><rect x="293.5" y="52" width="130.5" height="22" rx="10" ry="10"></rect><text x="358.75" y="67">fullFieldName</text></g><path d="M424 63h10"></path><g><path d="M434 63h0"></path><path d="M750 63h0"></path><path d="M434 63a10 10 0 0 0 10 -10v-7a10 10 0 0 1 10 -10"></path><g><path d="M454 36h276"></path></g><path d="M730 36a10 10 0 0 1 10 10v7a10 10 0 0 0 10 10"></path><path d="M434 63h20"></path><g><path d="M454 63h0"></path><path d="M730 63h0"></path><path d="M454 63h10"></path><g><path d="M464 63h0"></path><path d="M720 63h0"></path><path d="M464 63h20"></path><g><path d="M484 63h0"></path><g><path d="M484 63h10"></path><path d="M690 63h10"></path><g class="terminal "><path d="M494 63h0"></path><path d="M539.5 63h0"></path><rect x="494" y="52" width="45.5" height="22"></rect><text x="516.75" y="67">','</text></g><path d="M539.5 63h10"></path><path d="M549.5 63h10"></path><g class="non-terminal "><path d="M559.5 63h0"></path><path d="M690 63h0"></path><rect x="559.5" y="52" width="130.5" height="22" rx="10" ry="10"></rect><text x="624.75" y="67">fullFieldName</text></g></g><path d="M700 63h0"></path></g><path d="M700 63h20"></path></g><path d="M720 63h10"></path><path d="M464 63a10 10 0 0 0 -10 10v7a10 10 0 0 0 10 10"></path><g><path d="M464 90h256"></path></g><path d="M720 90a10 10 0 0 0 10 -10v-7a10 10 0 0 0 -10 -10"></path></g><path d="M730 63h20"></path></g></g><path d="M760 63h0"></path></g><path d="M760 63h20"></path></g><path d="M780 63h20"></path></g><g><path d="M800 63h0"></path><path d="M1496 63h0"></path><path d="M800 63a10 10 0 0 0 10 -10v-23a10 10 0 0 1 10 -10"></path><g><path d="M820 20h656"></path></g><path d="M1476 20a10 10 0 0 1 10 10v23a10 10 0 0 0 10 10"></path><path d="M800 63h20"></path><g><path d="M820 63h0"></path><path d="M1476 63h0"></path><path d="M820 63h20"></path><g><path d="M840 63h0"></path><g><path d="M840 63h10"></path><path d="M1446 63h10"></path><g class="terminal "><path d="M850 63h0"></path><path d="M912.5 63h0"></path><rect x="850" y="52" width="62.5" height="22"></rect><text x="881.25" y="67">ORDER</text></g><path d="M912.5 63h10"></path><path d="M922.5 63h10"></path><g class="terminal "><path d="M932.5 63h0"></path><path d="M969.5 63h0"></path><rect x="932.5" y="52" width="37" height="22"></rect><text x="951" y="67">BY</text></g><path d="M969.5 63h10"></path><path d="M979.5 63h10"></path><g class="non-terminal "><path d="M989.5 63h0"></path><path d="M1120 63h0"></path><rect x="989.5" y="52" width="130.5" height="22" rx="10" ry="10"></rect><text x="1054.75" y="67">fullFieldName</text></g><path d="M1120 63h10"></path><g><path d="M1130 63h0"></path><path d="M1446 63h0"></path><path d="M1130 63a10 10 0 0 0 10 -10v-7a10 10 0 0 1 10 -10"></path><g><path d="M1150 36h276"></path></g><path d="M1426 36a10 10 0 0 1 10 10v7a10 10 0 0 0 10 10"></path><path d="M1130 63h20"></path><g><path d="M1150 63h0"></path><path d="M1426 63h0"></path><path d="M1150 63h10"></path><g><path d="M1160 63h0"></path><path d="M1416 63h0"></path><path d="M1160 63h20"></path><g><path d="M1180 63h0"></path><g><path d="M1180 63h10"></path><path d="M1386 63h10"></path><g class="terminal "><path d="M1190 63h0"></path><path d="M1235.5 63h0"></path><rect x="1190" y="52" width="45.5" height="22"></rect><text x="1212.75" y="67">','</text></g><path d="M1235.5 63h10"></path><path d="M1245.5 63h10"></path><g class="non-terminal "><path d="M1255.5 63h0"></path><path d="M1386 63h0"></path><rect x="1255.5" y="52" width="130.5" height="22" rx="10" ry="10"></rect><text x="1320.75" y="67">fullFieldName</text></g></g><path d="M1396 63h0"></path></g><path d="M1396 63h20"></path></g><path d="M1416 63h10"></path><path d="M1160 63a10 10 0 0 0 -10 10v7a10 10 0 0 0 10 10"></path><g><path d="M1160 90h256"></path></g><path d="M1416 90a10 10 0 0 0 10 -10v-7a10 10 0 0 0 -10 -10"></path></g><path d="M1426 63h20"></path></g></g><path d="M1456 63h0"></path></g><path d="M1456 63h20"></path></g><path d="M1476 63h20"></path></g><g><path d="M1496 63h0"></path><path d="M1650 63h0"></path><path d="M1496 63a10 10 0 0 0 10 -10v-7a10 10 0 0 1 10 -10"></path><g><path d="M1516 36h114"></path></g><path d="M1630 36a10 10 0 0 1 10 10v7a10 10 0 0 0 10 10"></path><path d="M1496 63h20"></path><g><path d="M1516 63h0"></path><path d="M1630 63h0"></path><path d="M1516 63h20"></path><g><path d="M1536 63h4.25"></path><g><path d="M1540.25 63h10"></path><path d="M1595.75 63h10"></path><g class="terminal "><path d="M1550.25 63h0"></path><path d="M1595.75 63h0"></path><rect x="1550.25" y="52" width="45.5" height="22"></rect><text x="1573" y="67">ASC</text></g></g><path d="M1605.75 63h4.25"></path></g><path d="M1610 63h20"></path><path d="M1516 63a10 10 0 0 1 10 10v18a10 10 0 0 0 10 10"></path><g><path d="M1536 101h0"></path><g><path d="M1536 101h10"></path><path d="M1600 101h10"></path><g class="terminal "><path d="M1546 101h0"></path><path d="M1600 101h0"></path><rect x="1546" y="90" width="54" height="22"></rect><text x="1573" y="105">DESC</text></g></g><path d="M1610 101h0"></path></g><path d="M1610 101a10 10 0 0 0 10 -10v-18a10 10 0 0 1 10 -10"></path></g><path d="M1630 63h20"></path></g><g><path d="M1650 63h0"></path><path d="M1803.5 63h0"></path><path d="M1650 63a10 10 0 0 0 10 -10v-7a10 10 0 0 1 10 -10"></path><g><path d="M1670 36h113.5"></path></g><path d="M1783.5 36a10 10 0 0 1 10 10v7a10 10 0 0 0 10 10"></path><path d="M1650 63h20"></path><g class="non-terminal "><path d="M1670 63h0"></path><path d="M1783.5 63h0"></path><rect x="1670" y="52" width="113.5" height="22" rx="10" ry="10"></rect><text x="1726.75" y="67">frameClause</text></g><path d="M1783.5 63h20"></path></g></g><path d="M1813.5 63h0"></path></g><path d="M1813.5 63h20"></path></g><path d="M 1833.5 63 h 20 m 0 -10 v 20"></path></g><defs><style type="text/css"><![CDATA[
svg.railroad-diagram path { stroke-width: 2; stroke: darkgray; fill: rgba(0, 0, 0, 0);}/* All text except comments. */svg.railroad-diagram text { font: bold 12px Hack, "Source Code Pro", monospace; text-anchor: middle; fill: #404040;}/* Comment text */svg.railroad-diagram text.comment { font: italic 10px Hack, "Source Code Pro", monospace; fill: #404040;}/* The terminal boxes. */svg.railroad-diagram g.terminal rect { stroke-width: 2; stroke: #404040; fill: rgba(200, 200, 200, 1);}svg.railroad-diagram g.non-terminal rect { /* The non-terminal boxes. */ stroke-width: 2; stroke: #404040; fill: rgba(255, 255, 255, 1);}/* Multiple choice text, not working atm. */svg.railroad-diagram text.diagram-text { font-size: 12px Hack, "Source Code Pro", monospace; fill: red;}/* Multiple choice text, not working atm. */svg.railroad-diagram path.diagram-text { stroke-width: 1; stroke: red; fill: red; cursor: help;}
 ]]>
</style></defs></svg>