<?xml version="1.0" encoding="UTF-8" standalone="no"?>
<!DOCTYPE svg PUBLIC "-//W3C//DTD SVG 1.1//EN" "http://www.w3.org/Graphics/SVG/1.1/DTD/svg11.dtd">
<svg class="railroad-diagram" width="807" height="94" viewBox="0 0 807 94" id="withClause" xmlns="http://www.w3.org/2000/svg" xmlns:xlink="http://www.w3.org/1999/xlink"><g transform="translate(.5 .5)"><g><path d="M20 37v20m0 -10h20"></path></g><g><path d="M40 47h0"></path><path d="M767 47h0"></path><path d="M40 47h20"></path><g><path d="M60 47h0"></path><g><path d="M60 47h10"></path><path d="M737 47h10"></path><g class="terminal "><path d="M70 47h0"></path><path d="M124 47h0"></path><rect x="70" y="36" width="54" height="22"></rect><text x="97" y="51">WITH</text></g><path d="M124 47h10"></path><g><path d="M134 47h0"></path><path d="M270.5 47h0"></path><path d="M134 47a10 10 0 0 0 10 -10v-7a10 10 0 0 1 10 -10"></path><g><path d="M154 20h96.5"></path></g><path d="M250.5 20a10 10 0 0 1 10 10v7a10 10 0 0 0 10 10"></path><path d="M134 47h20"></path><g class="terminal "><path d="M154 47h0"></path><path d="M250.5 47h0"></path><rect x="154" y="36" width="96.5" height="22"></rect><text x="202.25" y="51">RECURSIVE</text></g><path d="M250.5 47h20"></path></g><path d="M270.5 47h10"></path><g class="non-terminal "><path d="M280.5 47h0"></path><path d="M411 47h0"></path><rect x="280.5" y="36" width="130.5" height="22" rx="10" ry="10"></rect><text x="345.75" y="51">cteDefinition</text></g><path d="M411 47h10"></path><g><path d="M421 47h0"></path><path d="M737 47h0"></path><path d="M421 47a10 10 0 0 0 10 -10v-7a10 10 0 0 1 10 -10"></path><g><path d="M441 20h276"></path></g><path d="M717 20a10 10 0 0 1 10 10v7a10 10 0 0 0 10 10"></path><path d="M421 47h20"></path><g><path d="M441 47h0"></path><path d="M717 47h0"></path><path d="M441 47h10"></path><g><path d="M451 47h0"></path><path d="M707 47h0"></path><path d="M451 47h20"></path><g><path d="M471 47h0"></path><g><path d="M471 47h10"></path><path d="M677 47h10"></path><g class="terminal "><path d="M481 47h0"></path><path d="M526.5 47h0"></path><rect x="481" y="36" width="45.5" height="22"></rect><text x="503.75" y="51">','</text></g><path d="M526.5 47h10"></path><path d="M536.5 47h10"></path><g class="non-terminal "><path d="M546.5 47h0"></path><path d="M677 47h0"></path><rect x="546.5" y="36" width="130.5" height="22" rx="10" ry="10"></rect><text x="611.75" y="51">cteDefinition</text></g></g><path d="M687 47h0"></path></g><path d="M687 47h20"></path></g><path d="M707 47h10"></path><path d="M451 47a10 10 0 0 0 -10 10v7a10 10 0 0 0 10 10"></path><g><path d="M451 74h256"></path></g><path d="M707 74a10 10 0 0 0 10 -10v-7a10 10 0 0 0 -10 -10"></path></g><path d="M717 47h20"></path></g></g><path d="M747 47h0"></path></g><path d="M747 47h20"></path></g><path d="M 767 47 h 20 m 0 -10 v 20"></path></g><defs><style type="text/css"><![CDATA[
svg.railroad-diagram path { stroke-width: 2; stroke: darkgray; fill: rgba(0, 0, 0, 0);}/* All text except comments. */svg.railroad-diagram text { font: bold 12px Hack, "Source Code Pro", monospace; text-anchor: middle; fill: #404040;}/* Comment text */svg.railroad-diagram text.comment { font: italic 10px Hack, "Source Code Pro", monospace; fill: #404040;}/* The terminal boxes. */svg.railroad-diagram g.terminal rect { stroke-width: 2; stroke: #404040; fill: rgba(200, 200, 200, 1);}svg.railroad-diagram g.non-terminal rect { /* The non-terminal boxes. */ stroke-width: 2; stroke: #404040; fill: rgba(255, 255, 255, 1);}/* Multiple choice text, not working atm. */svg.railroad-diagram text.diagram-text { font-size: 12px Hack, "Source Code Pro", monospace; fill: red;}/* Multiple choice text, not working atm. */svg.railroad-diagram path.diagram-text { stroke-width: 1; stroke: red; fill: red; cursor: help;}
 ]]>
</style></defs></svg>